<?xml version="1.0" encoding="utf-8"?>
<!-- Generator: Adobe Illustrator 24.2.3, SVG Export Plug-In . SVG Version: 6.00 Build 0)  -->
<svg version="1.1" id="Layer_1" xmlns="http://www.w3.org/2000/svg" xmlns:xlink="http://www.w3.org/1999/xlink" x="0px" y="0px"
	 viewBox="0 0 145 41" style="enable-background:new 0 0 145 41;" xml:space="preserve">
<style type="text/css">
	.st0{fill:#FBB042;}
	.st1{fill:#F89521;}
	.st2{fill:#29AAE1;}
	.st3{fill:#D7DF28;}
	.st4{fill:#49C8F5;}
	.st5{fill:#F8ED33;}
	.st6{enable-background:new    ;}
	.st7{fill:#FFFFFF;}
</style>
<g id="Layer_2_1_">
	<g id="Layer_1-2">
		<polygon class="st0" points="19.8,31.1 19.8,31.1 19.8,34.4 19.8,34.4 17,36 17,39.3 19.8,37.6 22.7,36 22.7,32.7 22.7,29.5 
			22.7,29.5 22.7,29.5 		"/>
		<polygon class="st1" points="17,32.7 17,32.7 17,36 19.8,34.4 19.8,34.4 19.8,31.1 19.8,31.1 		"/>
		<polygon class="st2" points="17,32.7 17,32.7 19.8,31.1 17,29.5 14.2,31.1 		"/>
		<polygon class="st3" points="17,32.7 14.2,31.1 14.2,34.4 17,36 		"/>
		<polygon class="st4" points="17,29.5 19.8,31.1 19.8,31.1 22.7,29.5 19.8,27.8 19.8,27.8 17,26.2 14.2,27.8 11.3,29.5 14.2,31.1 
					"/>
		<polygon class="st5" points="11.3,32.7 11.3,32.7 11.3,36 14.2,37.6 17,39.3 17,36 14.2,34.4 14.2,31.1 11.3,29.5 		"/>
		<polygon class="st0" points="19.8,4.9 19.8,8.2 19.8,8.2 22.7,9.8 22.7,6.5 22.7,3.3 22.7,3.3 		"/>
		<path class="st0" d="M19.8,11.5L19.8,11.5L19.8,11.5z"/>
		<polygon class="st1" points="19.8,4.9 17,6.5 19.8,8.2 		"/>
		<polygon class="st2" points="17,3.3 14.2,4.9 17,6.5 17,6.5 17,6.5 19.8,4.9 		"/>
		<polygon class="st3" points="14.2,8.2 17,6.5 14.2,4.9 		"/>
		<polygon class="st4" points="17,0 14.2,1.6 11.3,3.3 14.2,4.9 17,3.3 19.8,4.9 19.8,4.9 22.7,3.3 19.8,1.6 19.8,1.6 		"/>
		<polygon class="st5" points="14.2,4.9 11.3,3.3 11.3,6.5 11.3,6.5 11.3,9.8 14.2,8.2 		"/>
		<polygon class="st0" points="19.8,11.5 19.8,11.5 19.8,14.7 19.8,14.7 22.7,16.4 22.7,13.1 22.7,13.1 22.7,13.1 22.7,9.8 
			22.7,9.8 22.7,9.8 22.7,9.8 		"/>
		<polygon class="st0" points="19.8,14.7 22.7,16.4 22.7,16.4 19.8,14.7 		"/>
		<polygon class="st0" points="19.8,14.7 19.8,14.7 19.8,14.7 19.8,14.7 		"/>
		<polygon class="st1" points="17,13.1 19.8,14.7 19.8,14.7 19.8,11.5 19.8,11.5 19.8,11.5 		"/>
		<polygon class="st1" points="16.8,13.9 20.1,13.9 20.1,13.9 		"/>
		<polygon class="st3" points="17,13.1 17,13.1 17,13.1 14.2,14.7 14.2,14.7 		"/>
		<polygon class="st2" points="17,13.1 17,13.1 19.8,11.5 17,9.8 14.2,11.5 		"/>
		<path class="st5" d="M14.2,14.7L14.2,14.7L14.2,14.7z"/>
		<polygon class="st3" points="14.2,11.5 14.2,11.5 14.2,14.7 17,13.1 		"/>
		<polygon class="st5" points="11.3,16.4 14.2,14.7 14.2,14.7 		"/>
		<polygon class="st4" points="17,9.8 19.8,11.5 19.8,11.5 22.7,9.8 19.8,8.2 19.8,8.2 17,6.5 17,6.5 17,6.5 14.2,8.2 11.3,9.8 
			14.2,11.5 		"/>
		<polygon class="st5" points="11.3,9.8 11.3,13.1 11.3,16.4 14.2,14.7 14.2,11.5 14.2,11.5 11.3,9.8 		"/>
		<polygon class="st4" points="28.3,22.9 31.2,24.6 31.2,24.6 34,22.9 31.2,21.3 31.2,21.3 28.3,19.6 		"/>
		<polygon class="st0" points="31.2,24.6 31.2,27.8 31.2,27.8 28.3,29.5 28.3,32.7 31.2,31.1 34,29.5 34,26.2 34,22.9 34,22.9 
			31.2,24.5 		"/>
		<polygon class="st2" points="28.3,22.9 28.3,26.2 31.2,24.6 		"/>
		<polygon class="st1" points="28.3,29.5 31.2,27.8 31.2,27.8 31.2,24.6 31.2,24.6 28.3,26.2 28.3,26.2 28.3,26.2 28.3,26.2 		"/>
		<polygon class="st3" points="28.3,29.5 28.3,26.2 28.3,26.2 27.8,26.5 25.5,27.8 		"/>
		<path class="st2" d="M28.3,26.2L28.3,26.2L28.3,26.2z"/>
		<path class="st4" d="M25.5,21.3L25.5,21.3L25.5,21.3z"/>
		<polygon class="st3" points="27.8,26.5 25.5,27.8 25.5,27.8 25.5,27.8 		"/>
		<polygon class="st5" points="25.5,27.8 24.2,28.6 22.7,29.5 22.7,29.5 22.7,29.5 25.5,31.1 28.3,32.7 28.3,29.5 		"/>
		<path class="st5" d="M25.5,27.8L25.5,27.8L25.5,27.8z"/>
		<path class="st5" d="M25.5,27.8l-1.3,0.8L25.5,27.8z"/>
		<path class="st5" d="M22.7,29.5L22.7,29.5L22.7,29.5z"/>
		<polygon class="st0" points="8.5,27.8 8.5,27.8 11.3,29.5 		"/>
		<path class="st0" d="M8.5,27.8L8.5,27.8L8.5,27.8z"/>
		<polygon class="st1" points="8.5,27.8 8.5,27.8 8.5,27.8 5.7,26.2 5.7,26.2 		"/>
		<polygon class="st0" points="8.5,27.8 8.5,27.8 5.7,29.5 5.7,32.7 8.5,31.1 11.3,29.5 		"/>
		<polygon class="st1" points="5.7,29.5 8.5,27.8 5.7,26.2 		"/>
		<polygon class="st2" points="5.7,26.2 5.7,26.2 5.7,26.2 5.7,22.9 2.8,24.6 		"/>
		<polygon class="st3" points="5.7,26.2 2.8,24.6 2.8,27.8 5.7,29.5 		"/>
		<polygon class="st4" points="2.8,21.3 0,22.9 2.8,24.6 5.7,22.9 5.7,22.9 5.7,22.9 5.7,19.6 		"/>
		<polygon class="st5" points="0,26.2 0,26.2 0,29.5 2.8,31.1 5.7,32.7 5.7,29.5 2.8,27.8 2.8,24.6 0,22.9 		"/>
		<polygon class="st4" points="25.5,18 25.5,18 25.5,18 22.7,16.4 22.7,19.6 25.5,21.3 25.5,21.3 28.3,19.6 26.1,18.3 		"/>
		<polygon class="st0" points="28.3,19.6 25.5,21.3 25.5,21.3 25.5,21.3 25.5,24.6 25.5,24.6 22.7,26.2 22.7,29.5 24.2,28.6 
			25.5,27.8 25.5,27.8 25.5,27.8 27.8,26.5 28.3,26.2 28.3,26.2 28.3,26.2 28.3,26.2 28.3,22.9 28.3,22.9 28.3,19.6 28.3,19.6 
			28.3,19.6 		"/>
		<polygon class="st2" points="25.5,21.3 22.7,19.6 22.7,22.9 		"/>
		<polygon class="st1" points="25.5,21.3 22.7,22.9 22.7,22.9 22.7,26.2 25.5,24.5 25.5,24.5 		"/>
		<polygon class="st3" points="22.7,22.9 19.8,24.5 22.7,26.2 		"/>
		<polygon class="st2" points="22.7,19.6 22.7,22.9 22.7,22.9 22.7,22.9 		"/>
		<polygon class="st4" points="22.7,16.4 22.7,16.4 22.7,19.6 22.7,19.6 22.7,16.4 		"/>
		<path class="st4" d="M22.7,19.6L22.7,19.6L22.7,19.6z"/>
		<rect x="21.3" y="22.1" class="st3" width="0" height="3.3"/>
		<polygon class="st5" points="18.2,25.5 17,26.2 19.8,27.8 22.7,29.5 22.7,29.5 22.7,29.5 22.7,26.2 19.8,24.6 		"/>
		<path class="st5" d="M19.8,24.5v0.1V24.5z"/>
		<path class="st4" d="M19.8,18L19.8,18L19.8,18z"/>
		<polygon class="st5" points="19.8,24.5 19.8,24.5 18.2,25.5 		"/>
		<polygon class="st0" points="15.6,25.4 14.2,24.5 14.2,24.6 		"/>
		<polygon class="st1" points="14.2,24.5 14.2,24.5 11.3,22.9 		"/>
		<path class="st4" d="M11.3,16.4L11.3,16.4L11.3,16.4z"/>
		<polygon class="st0" points="14.2,24.6 14.2,24.5 14.2,24.5 11.3,26.2 11.3,26.2 11.3,29.5 14.2,27.8 17,26.2 15.6,25.4 		"/>
		<polygon class="st1" points="11.3,22.9 11.3,26.2 14.2,24.5 		"/>
		<polygon class="st2" points="11.3,22.9 11.3,22.9 11.3,22.9 11.3,19.6 8.5,21.3 		"/>
		<polygon class="st3" points="11.3,22.9 11.3,22.9 8.5,21.3 8.5,24.5 11.3,26.2 		"/>
		<polygon class="st4" points="8.5,18 5.7,19.6 8.5,21.3 11.3,19.6 11.3,19.6 11.3,16.4 11.3,16.4 		"/>
		<polygon class="st5" points="11.3,26.2 8.5,24.6 8.5,21.3 5.7,19.6 5.7,19.6 5.7,22.9 5.7,22.9 5.7,22.9 5.7,26.2 8.5,27.8 
			8.5,27.8 11.3,29.5 		"/>
		<polygon class="st0" points="11.3,16.4 11.3,16.4 11.3,16.4 11.3,16.4 11.3,13.1 11.3,9.8 11.3,9.8 8.5,11.5 8.5,11.5 8.5,14.7 
			8.5,14.7 5.7,16.4 5.7,19.6 8.5,18 		"/>
		<polygon class="st1" points="8.5,14.7 8.5,11.5 8.5,11.5 5.7,13.1 5.7,13.1 5.7,16.4 		"/>
		<polygon class="st2" points="5.7,13.1 5.7,13.1 8.5,11.5 5.7,9.8 2.8,11.5 		"/>
		<polygon class="st3" points="5.7,13.1 2.8,11.5 2.8,14.7 5.7,16.4 		"/>
		<polygon class="st4" points="2.8,8.2 0,9.8 2.8,11.5 5.7,9.8 8.5,11.5 8.5,11.5 11.3,9.8 8.5,8.2 8.5,8.2 5.7,6.5 		"/>
		<polygon class="st5" points="0,13.1 0,13.1 0,16.4 2.8,18 5.7,19.6 5.7,19.6 5.7,16.4 2.8,14.7 2.8,11.5 0,9.8 		"/>
		<polygon class="st0" points="18.2,25.5 19.8,24.6 19.8,24.5 19.8,24.5 22.7,22.9 22.7,19.6 22.7,19.6 22.7,19.6 22.7,16.4 
			22.7,16.4 22.7,16.4 19.8,18 19.8,18 19.8,18 19.8,21.3 19.8,21.3 17,22.9 17,26.2 17,26.2 		"/>
		<polygon class="st1" points="19.8,18 17,19.6 17,19.6 17,22.9 19.8,21.3 19.8,21.3 19.8,18 		"/>
		<polygon class="st2" points="17,19.6 17,19.6 19.8,18 17,16.4 14.2,18 		"/>
		<polygon class="st3" points="17,19.6 14.2,18 14.2,21.3 17,22.9 		"/>
		<polygon class="st4" points="19.8,14.7 19.8,14.7 19.8,14.7 17,13.1 14.2,14.7 14.2,14.7 11.3,16.4 11.3,16.4 11.3,16.4 14.2,18 
			17,16.4 19.8,18 19.8,18 22.7,16.4 22.7,16.4 		"/>
		<polygon class="st5" points="14.2,21.3 14.2,18 11.3,16.4 11.3,19.6 11.3,19.6 11.3,22.9 11.3,22.9 14.2,24.6 15.6,25.4 17,26.2 
			17,26.2 17,22.9 		"/>
		<polygon class="st0" points="31.2,11.5 31.2,11.5 31.2,14.7 31.2,14.7 28.3,16.4 28.3,19.6 28.3,19.6 31.2,18 34,16.4 34,13.1 
			34,9.8 34,9.8 		"/>
		<polygon class="st1" points="28.3,13.1 28.3,13.1 28.3,16.4 31.2,14.7 31.2,14.7 31.2,11.5 31.2,11.5 		"/>
		<polygon class="st2" points="28.3,13.1 28.3,13.1 31.2,11.5 28.3,9.8 25.5,11.5 		"/>
		<polygon class="st3" points="28.3,13.1 25.5,11.5 25.5,14.7 28.3,16.4 		"/>
		<polygon class="st4" points="28.3,9.8 31.2,11.5 31.2,11.5 34,9.8 31.2,8.2 31.2,8.2 28.3,6.5 25.5,8.2 22.7,9.8 25.5,11.5 		"/>
		<polygon class="st5" points="22.7,13.1 22.7,13.1 22.7,16.4 22.7,16.4 22.7,16.4 22.7,16.4 25.5,18 25.5,18 26.1,18.3 28.3,19.6 
			28.3,19.6 28.3,16.4 25.5,14.7 25.5,11.5 22.7,9.8 		"/>
		<g class="st6">
			<path class="st7" d="M45.5,24.1c-0.3-0.3-0.4-0.7-0.4-1.1v-9.9h8.8v2h-6.5v2.7h6v2h-6v2.9h6.5v2h-7.2
				C46.2,24.5,45.8,24.4,45.5,24.1z"/>
			<path class="st7" d="M55.3,13.1h2l5.5,7.8v-7.8H65v11.5h-2l-5.5-7.8v7.8h-2.2V13.1z"/>
		</g>
		<g class="st6">
			<path class="st7" d="M68.8,24.1c-0.6-0.4-1.1-0.9-1.5-1.5c-0.4-0.7-0.5-1.4-0.5-2.3v-3c0-0.9,0.2-1.6,0.5-2.3
				c0.4-0.7,0.9-1.2,1.5-1.5c0.7-0.4,1.4-0.5,2.3-0.5h1.8c0.8,0,1.5,0.2,2.2,0.5c0.6,0.3,1.1,0.8,1.5,1.4c0.3,0.6,0.5,1.3,0.5,2.1
				h-2.2c0-0.6-0.2-1.1-0.5-1.4c-0.3-0.4-0.8-0.5-1.4-0.5h-1.8c-0.6,0-1.1,0.2-1.5,0.7c-0.4,0.5-0.6,1-0.6,1.8v2.8
				c0,0.7,0.2,1.3,0.5,1.8c0.4,0.5,0.8,0.7,1.5,0.7H73c0.6,0,1-0.2,1.4-0.6s0.5-0.9,0.5-1.5v-0.4h-3.2v-2h5.4v2.3
				c0,0.8-0.2,1.5-0.5,2.1s-0.8,1.1-1.5,1.5c-0.6,0.3-1.4,0.5-2.2,0.5H71C70.2,24.7,69.5,24.5,68.8,24.1z"/>
		</g>
		<g class="st6">
			<path class="st7" d="M85.1,21.9h-4.3l-1,2.7h-2.4l4.5-11.5h1c0.7,0,1.2,0.3,1.4,1l4.1,10.5H86L85.1,21.9z M81.4,20h3.1L83,15.8
				l0,0L81.4,20z"/>
		</g>
		<g class="st6">
			<path class="st7" d="M90.6,24.2c-0.6-0.3-1-0.8-1.3-1.5c-0.3-0.6-0.5-1.4-0.5-2.2H91c0,0.6,0.1,1.2,0.4,1.6s0.6,0.6,1.1,0.6h1.3
				c0.4,0,0.8-0.2,1.1-0.6c0.3-0.4,0.4-0.9,0.4-1.6v-7.4h2.3v7.5c0,0.8-0.2,1.5-0.5,2.2c-0.3,0.6-0.7,1.1-1.3,1.5
				c-0.6,0.3-1.2,0.5-1.9,0.5h-1.4C91.8,24.7,91.1,24.5,90.6,24.2z"/>
		</g>
		<g class="st6">
			<path class="st7" d="M105.7,21.9h-4.3l-1,2.7H98l4.5-11.5h1c0.7,0,1.2,0.3,1.4,1l4.1,10.5h-2.4L105.7,21.9z M102,20h3.1l-1.5-4.1
				l0,0L102,20z"/>
		</g>
		<g class="st6">
			<path class="st7" d="M110.5,24.1c-0.3-0.3-0.4-0.7-0.4-1.1v-9.9h5.5c0.9,0,1.6,0.2,2.3,0.5c0.7,0.3,1.2,0.8,1.5,1.4
				s0.5,1.3,0.5,2.1v3.2c0,1.4-0.4,2.5-1.1,3.2s-1.8,1.1-3.2,1.1h-4C111.1,24.5,110.8,24.4,110.5,24.1z M115.5,22.5
				c0.7,0,1.2-0.2,1.6-0.6s0.5-1,0.5-1.8v-3c0-0.6-0.2-1.1-0.6-1.5s-0.9-0.6-1.6-0.6h-3.1v7.5H115.5z"/>
			<path class="st7" d="M123.3,24.1c-0.7-0.4-1.2-0.9-1.5-1.5c-0.4-0.7-0.5-1.4-0.5-2.3v-3c0-0.9,0.2-1.6,0.5-2.3
				c0.4-0.7,0.9-1.2,1.5-1.5c0.7-0.4,1.4-0.5,2.3-0.5h1.7c0.9,0,1.6,0.2,2.3,0.5c0.7,0.4,1.2,0.9,1.5,1.5s0.5,1.4,0.5,2.3v3
				c0,0.9-0.2,1.6-0.5,2.3c-0.4,0.7-0.9,1.2-1.5,1.5c-0.7,0.4-1.4,0.5-2.3,0.5h-1.7C124.7,24.7,124,24.5,123.3,24.1z M127.3,22.7
				c0.6,0,1.1-0.2,1.5-0.7s0.6-1.1,0.6-1.8v-2.8c0-0.7-0.2-1.3-0.6-1.8c-0.4-0.5-0.9-0.7-1.5-0.7h-1.7c-0.6,0-1.1,0.2-1.5,0.7
				s-0.6,1.1-0.6,1.8v2.8c0,0.7,0.2,1.3,0.6,1.8s0.9,0.7,1.5,0.7H127.3z"/>
			<path class="st7" d="M134,23.7c-0.7-0.7-1-1.6-1-2.8h2.2c0,0.6,0.1,1,0.4,1.3c0.3,0.3,0.7,0.5,1.2,0.5h1.8c0.5,0,0.9-0.1,1.2-0.3
				c0.3-0.2,0.5-0.5,0.5-0.8V21c0-0.5-0.4-0.9-1.2-1l-3-0.5c-1-0.2-1.7-0.5-2.2-0.9c-0.5-0.5-0.8-1.1-0.8-1.8v-0.9
				c0-0.6,0.2-1.1,0.5-1.5s0.8-0.8,1.3-1c0.6-0.2,1.2-0.4,2-0.4h1.9c0.7,0,1.3,0.1,1.9,0.4c0.5,0.3,1,0.7,1.3,1.2s0.5,1.1,0.5,1.8
				h-2.2c0-0.5-0.1-0.8-0.4-1.1c-0.3-0.3-0.6-0.4-1-0.4H137c-0.5,0-0.8,0.1-1.1,0.3s-0.4,0.5-0.4,0.8v0.4c0,0.5,0.4,0.9,1.1,1l3,0.5
				c1,0.2,1.8,0.5,2.3,0.9s0.8,1,0.8,1.7v1.1c0,0.6-0.2,1.1-0.5,1.5s-0.8,0.8-1.4,1c-0.6,0.2-1.3,0.4-2,0.4h-1.9
				C135.6,24.7,134.7,24.3,134,23.7z"/>
		</g>
	</g>
</g>
</svg>
