<?xml version="1.0" encoding="utf-8"?>
<!-- Generator: Adobe Illustrator 24.2.3, SVG Export Plug-In . SVG Version: 6.00 Build 0)  -->
<svg version="1.1" id="Layer_1" xmlns="http://www.w3.org/2000/svg" xmlns:xlink="http://www.w3.org/1999/xlink" x="0px" y="0px"
	 viewBox="0 0 185.6 205.1" style="enable-background:new 0 0 185.6 205.1;" xml:space="preserve">
<style type="text/css">
	.st0{fill:#FBB042;}
	.st1{fill:#F89521;}
	.st2{fill:#29AAE1;}
	.st3{fill:#D7DF28;}
	.st4{fill:#49C8F5;}
	.st5{fill:#F8ED33;}
	.st6{enable-background:new    ;}
	.st7{fill:#FFFFFF;}
</style>
<g id="Layer_2_1_">
	<g id="Layer_1-2">
		<polygon class="st0" points="103.1,112.8 103.1,112.8 103.1,124.7 103.1,124.7 92.8,130.6 92.8,142.5 103.1,136.5 113.4,130.6 
			113.4,118.7 113.4,106.9 113.4,106.9 113.4,106.8 		"/>
		<polygon class="st1" points="92.8,118.7 92.8,118.7 92.8,130.6 103.1,124.7 103.1,124.7 103.1,112.8 103.1,112.8 		"/>
		<polygon class="st2" points="92.8,118.7 92.8,118.7 103.1,112.8 92.8,106.9 82.5,112.8 92.8,118.7 		"/>
		<polygon class="st3" points="92.8,118.7 82.5,112.8 82.5,124.7 92.8,130.6 92.8,118.7 		"/>
		<polygon class="st4" points="92.8,106.9 103.1,112.8 103.1,112.8 113.4,106.8 103.1,100.9 103.1,100.9 92.8,95 82.5,100.9 
			72.3,106.9 82.5,112.8 		"/>
		<polygon class="st5" points="72.3,118.7 72.3,118.7 72.3,130.6 82.5,136.5 92.8,142.5 92.8,130.6 82.5,124.7 82.5,112.8 
			72.3,106.9 		"/>
		<polygon class="st0" points="103.1,17.8 103.1,29.7 103.1,29.7 113.4,35.6 113.4,23.7 113.4,11.9 113.4,11.9 103.1,17.8 		"/>
		<polygon class="st0" points="103.1,41.5 103.1,41.5 103.1,41.5 		"/>
		<polygon class="st1" points="103.1,17.8 92.8,23.7 103.1,29.7 103.1,17.8 		"/>
		<polygon class="st2" points="92.8,11.9 82.5,17.8 92.8,23.7 92.8,23.7 92.8,23.7 103.1,17.8 		"/>
		<polygon class="st3" points="82.5,29.7 92.8,23.7 82.5,17.8 		"/>
		<polygon class="st4" points="92.8,0 82.5,5.9 72.3,11.9 82.5,17.8 92.8,11.9 103.1,17.8 103.1,17.8 113.4,11.9 103.1,5.9 
			103.1,5.9 		"/>
		<polygon class="st5" points="82.5,17.8 72.3,11.9 72.3,23.7 72.3,23.7 72.3,35.6 82.5,29.7 		"/>
		<polygon class="st0" points="103.1,41.5 103.1,41.5 103.1,53.4 103.1,53.4 113.4,59.3 113.4,47.5 113.4,47.5 113.4,47.5 
			113.4,35.6 113.4,35.6 113.4,35.6 113.4,35.6 103.1,41.5 		"/>
		<polygon class="st0" points="103.1,53.4 113.4,59.4 113.4,59.3 103.1,53.4 103.1,53.4 		"/>
		<polygon class="st0" points="103.1,53.4 103.1,53.4 103.1,53.4 103.1,53.4 103.1,53.4 		"/>
		<polygon class="st1" points="92.8,47.5 103.1,53.4 103.1,53.4 103.1,41.5 103.1,41.5 103.1,41.5 92.8,47.5 		"/>
		<polygon class="st1" points="92.8,47.5 92.8,47.5 103.1,53.4 103.1,53.4 		"/>
		<polygon class="st3" points="92.8,47.5 92.8,47.5 92.8,47.5 82.5,53.4 82.6,53.4 		"/>
		<polygon class="st2" points="92.8,47.5 92.8,47.5 103.1,41.5 92.8,35.6 82.5,41.5 92.8,47.5 		"/>
		<polygon class="st5" points="82.5,53.4 82.6,53.4 82.5,53.4 		"/>
		<polygon class="st3" points="82.5,41.5 82.5,41.5 82.5,53.4 92.8,47.5 		"/>
		<polygon class="st5" points="72.3,59.4 82.5,53.4 82.5,53.4 72.3,59.3 		"/>
		<polygon class="st4" points="92.8,35.6 103.1,41.5 103.1,41.5 113.4,35.6 103.1,29.7 103.1,29.7 92.8,23.7 92.8,23.7 92.8,23.7 
			82.5,29.7 72.3,35.6 82.5,41.5 		"/>
		<polygon class="st5" points="72.3,35.6 72.3,47.5 72.3,59.3 82.5,53.4 82.5,41.5 82.5,41.5 72.3,35.6 72.3,35.6 		"/>
		<polygon class="st4" points="134,83.1 144.2,89 144.2,89 154.5,83.1 144.2,77.2 144.2,77.2 134,71.2 134,83.1 		"/>
		<polygon class="st0" points="144.2,89 144.2,100.9 144.2,100.9 133.9,106.8 133.9,118.7 144.2,112.8 154.5,106.8 154.5,95 
			154.5,83.1 154.5,83.1 144.2,89 		"/>
		<polygon class="st2" points="134,83.1 134,95 144.2,89 		"/>
		<polygon class="st1" points="133.9,106.8 144.2,100.9 144.2,100.9 144.2,89 144.2,89 134,95 134,95 133.9,95 133.9,95 		"/>
		<polygon class="st3" points="133.9,106.8 133.9,95 133.9,95 132.1,96 123.7,100.9 		"/>
		<polygon class="st2" points="133.9,95 133.9,95 133.9,95 		"/>
		<polygon class="st4" points="123.7,77.2 123.7,77.2 123.7,77.2 		"/>
		<polygon class="st3" points="132.1,96 123.7,100.9 123.7,100.9 123.7,100.9 		"/>
		<polygon class="st5" points="123.7,100.9 118.8,103.7 113.4,106.8 113.4,106.8 113.4,106.8 123.7,112.8 133.9,118.7 133.9,106.8 
					"/>
		<polygon class="st5" points="123.7,100.9 123.7,100.9 123.7,100.9 		"/>
		<polygon class="st5" points="123.7,100.9 118.8,103.7 123.7,100.9 		"/>
		<polygon class="st5" points="113.4,106.8 113.4,106.8 113.4,106.8 		"/>
		<polygon class="st0" points="62,100.9 62,100.9 72.3,106.8 62,100.9 		"/>
		<polygon class="st0" points="62,100.9 62,100.9 62,100.9 		"/>
		<polygon class="st1" points="62,100.9 62,100.9 62,100.9 51.7,95 51.7,95 		"/>
		<polygon class="st0" points="62,100.9 62,100.9 51.7,106.8 51.7,118.7 62,112.8 72.3,106.8 62,100.9 		"/>
		<polygon class="st1" points="51.7,106.8 62,100.9 51.7,95 		"/>
		<polygon class="st2" points="51.7,95 51.7,95 51.7,95 51.7,83.1 41.4,89 		"/>
		<polygon class="st3" points="51.7,95 41.4,89 41.4,100.9 51.7,106.8 51.7,95 		"/>
		<polygon class="st4" points="41.4,77.2 31.1,83.1 41.4,89 51.7,83.1 51.7,83.1 51.7,83.1 51.7,71.2 		"/>
		<polygon class="st5" points="31.1,95 31.1,95 31.1,106.8 41.4,112.8 51.7,118.7 51.7,106.8 41.4,100.9 41.4,89 31.1,83.1 		"/>
		<polygon class="st4" points="123.7,65.3 123.7,65.3 123.7,65.3 113.4,59.4 113.4,71.2 123.7,77.2 123.7,77.2 133.9,71.2 
			125.8,66.5 		"/>
		<polygon class="st0" points="133.9,71.2 123.7,77.2 123.7,77.2 123.7,77.2 123.7,89 123.7,89 113.4,95 113.4,106.8 118.8,103.7 
			123.7,100.9 123.7,100.9 123.7,100.9 132.1,96 133.9,95 133.9,95 134,95 134,95 134,83.1 134,83.1 134,71.2 134,71.2 134,71.2 
			133.9,71.2 		"/>
		<polygon class="st2" points="123.7,77.2 113.4,71.2 113.4,83.1 		"/>
		<polygon class="st1" points="123.7,77.2 113.4,83.1 113.4,83.1 113.4,95 123.7,89 123.7,89 123.7,77.2 		"/>
		<polygon class="st3" points="113.4,83.1 103.1,89 113.4,95 113.4,83.1 		"/>
		<polygon class="st2" points="113.4,71.2 113.4,83.1 113.4,83.1 113.4,83.1 113.4,71.2 		"/>
		<polygon class="st4" points="113.4,59.4 113.4,59.4 113.4,71.2 113.4,71.2 113.4,59.4 113.4,59.4 		"/>
		<rect x="113.4" y="71.2" class="st4" width="0" height="0"/>
		<rect x="108.3" y="80.1" class="st3" width="0" height="11.9"/>
		<polygon class="st5" points="97.2,92.4 92.8,95 103.1,100.9 113.4,106.8 113.4,106.8 113.4,106.8 113.4,95 103.1,89 		"/>
		<polygon class="st5" points="103.1,89 103.1,89 103.1,89 		"/>
		<polygon class="st4" points="103.1,65.3 103.1,65.3 103.1,65.3 		"/>
		<polygon class="st5" points="103.1,89 103.1,89 97.2,92.4 103.1,89 		"/>
		<polygon class="st0" points="87.8,92.1 82.5,89 82.5,89 		"/>
		<polygon class="st1" points="82.5,89 82.5,89 72.3,83.1 		"/>
		<polygon class="st4" points="72.3,59.4 72.3,59.4 72.3,59.4 		"/>
		<polygon class="st0" points="82.5,89 82.5,89 82.5,89 72.3,95 72.3,95 72.3,106.8 82.5,100.9 92.8,95 87.8,92.1 		"/>
		<polygon class="st1" points="72.3,83.1 72.3,95 82.5,89 72.3,83.1 		"/>
		<polygon class="st2" points="72.3,83.1 72.3,83.1 72.3,83.1 72.3,71.2 62,77.2 		"/>
		<polygon class="st3" points="72.3,83.1 72.3,83.1 62,77.2 62,89 72.3,95 72.3,83.1 		"/>
		<polygon class="st4" points="62,65.3 51.7,71.2 62,77.2 72.3,71.2 72.3,71.2 72.3,59.4 72.3,59.4 		"/>
		<polygon class="st5" points="72.3,95 62,89 62,77.2 51.7,71.2 51.7,71.2 51.7,83.1 51.7,83.1 51.7,83.1 51.7,95 62,100.9 
			62,100.9 72.3,106.8 72.3,95 		"/>
		<polygon class="st0" points="72.3,59.4 72.3,59.4 72.3,59.4 72.3,59.3 72.3,47.5 72.3,35.6 72.3,35.6 62,41.5 62,41.6 62,53.4 
			62,53.4 51.7,59.4 51.7,71.2 62,65.3 		"/>
		<polygon class="st1" points="62,53.4 62,41.6 62,41.6 51.7,47.5 51.7,47.5 51.7,59.4 62,53.4 		"/>
		<polygon class="st2" points="51.7,47.5 51.7,47.5 62,41.6 51.7,35.6 41.4,41.6 51.7,47.5 		"/>
		<polygon class="st3" points="51.7,47.5 41.4,41.6 41.4,53.4 51.7,59.4 51.7,47.5 		"/>
		<polygon class="st4" points="41.4,29.7 31.1,35.6 41.4,41.6 51.7,35.6 62,41.6 62,41.5 72.3,35.6 62,29.7 62,29.7 51.7,23.7 		"/>
		<polygon class="st5" points="31.1,47.5 31.1,47.5 31.1,59.4 41.4,65.3 51.7,71.2 51.7,71.2 51.7,59.4 41.4,53.4 41.4,41.6 
			31.1,35.6 		"/>
		<polygon class="st0" points="97.2,92.4 103.1,89 103.1,89 103.1,89 113.4,83.1 113.4,71.2 113.4,71.2 113.4,71.2 113.4,59.4 
			113.4,59.4 113.4,59.4 103.1,65.3 103.1,65.3 103.1,65.3 103.1,77.2 103.1,77.2 92.8,83.1 92.8,95 92.8,95 		"/>
		<polygon class="st1" points="103.1,65.3 92.8,71.2 92.8,71.2 92.8,83.1 103.1,77.2 103.1,77.2 103.1,65.3 103.1,65.3 		"/>
		<polygon class="st2" points="92.8,71.2 92.8,71.2 103.1,65.3 92.8,59.4 82.5,65.3 92.8,71.2 		"/>
		<polygon class="st3" points="92.8,71.2 82.5,65.3 82.5,77.2 92.8,83.1 92.8,71.2 		"/>
		<polygon class="st4" points="103.1,53.4 103.1,53.4 103.1,53.4 92.8,47.5 82.6,53.4 82.5,53.4 72.3,59.4 72.3,59.4 72.3,59.4 
			82.5,65.3 92.8,59.4 103.1,65.3 103.1,65.3 113.4,59.4 113.4,59.4 		"/>
		<polygon class="st5" points="82.5,77.2 82.5,65.3 72.3,59.4 72.3,71.2 72.3,71.2 72.3,83.1 72.3,83.1 82.5,89 87.8,92.1 92.8,95 
			92.8,95 92.8,83.1 		"/>
		<polygon class="st0" points="144.2,41.5 144.2,41.6 144.2,53.4 144.2,53.4 133.9,59.4 133.9,71.2 134,71.2 144.2,65.3 154.5,59.4 
			154.5,47.5 154.5,35.6 154.5,35.6 		"/>
		<polygon class="st1" points="133.9,47.5 133.9,47.5 133.9,59.4 144.2,53.4 144.2,53.4 144.2,41.6 144.2,41.6 		"/>
		<polygon class="st2" points="133.9,47.5 133.9,47.5 144.2,41.6 133.9,35.6 123.7,41.6 133.9,47.5 		"/>
		<polygon class="st3" points="133.9,47.5 123.7,41.6 123.7,53.4 133.9,59.4 133.9,47.5 		"/>
		<polygon class="st4" points="133.9,35.6 144.2,41.6 144.2,41.5 154.5,35.6 144.2,29.7 144.2,29.7 133.9,23.7 123.7,29.7 
			113.4,35.6 123.7,41.6 		"/>
		<polygon class="st5" points="113.4,47.5 113.4,47.5 113.4,59.3 113.4,59.4 113.4,59.4 113.4,59.4 123.7,65.3 123.7,65.3 
			125.8,66.5 133.9,71.2 133.9,71.2 133.9,59.4 123.7,53.4 123.7,41.6 113.4,35.6 113.4,47.5 		"/>
		<g class="st6">
			<path class="st7" d="M2.7,179.5c-0.6-0.5-0.8-1.2-0.8-2.1v-18.6h16.4v3.7H6.1v5h11.2v3.7H6.1v5.5h12.2v3.7H4.9
				C4,180.3,3.3,180,2.7,179.5z"/>
			<path class="st7" d="M21.2,158.8H25l10.3,14.6v-14.6h4.1v21.5h-3.8l-10.3-14.6v14.6h-4.1V158.8z"/>
		</g>
		<g class="st6">
			<path class="st7" d="M46.4,179.5c-1.2-0.7-2.1-1.6-2.8-2.9c-0.7-1.2-1-2.7-1-4.3v-5.7c0-1.6,0.3-3,1-4.3c0.7-1.2,1.6-2.2,2.8-2.9
				c1.2-0.7,2.6-1,4.2-1h3.4c1.5,0,2.9,0.3,4.1,0.9s2.1,1.5,2.7,2.6s1,2.4,1,3.9h-4.2c0-1.1-0.3-2-1-2.7c-0.7-0.7-1.5-1-2.6-1h-3.4
				c-1.1,0-2.1,0.4-2.8,1.3c-0.7,0.8-1,2-1,3.3v5.3c0,1.4,0.3,2.5,1,3.3c0.7,0.8,1.6,1.3,2.7,1.3h3.6c1,0,1.9-0.4,2.6-1.1
				c0.7-0.8,1-1.7,1-2.8v-0.7h-6v-3.7H62v4.4c0,1.5-0.3,2.8-1,4c-0.7,1.2-1.6,2.1-2.8,2.7c-1.2,0.7-2.5,1-4.1,1h-3.6
				C49,180.5,47.6,180.2,46.4,179.5z"/>
		</g>
		<g class="st6">
			<path class="st7" d="M76.9,175.3h-8l-1.9,5h-4.4l8.4-21.5h1.9c1.3,0,2.2,0.6,2.7,1.8l7.6,19.7h-4.4L76.9,175.3z M70,171.7h5.8
				l-2.9-7.7h0L70,171.7z"/>
		</g>
		<g class="st6">
			<path class="st7" d="M87.1,179.6c-1.1-0.6-1.9-1.6-2.5-2.7c-0.6-1.2-0.9-2.5-0.9-4.1H88c0,1.2,0.3,2.2,0.8,2.9
				c0.5,0.7,1.2,1.1,2,1.1h2.4c0.8,0,1.5-0.4,2-1.2c0.5-0.8,0.8-1.8,0.8-3v-13.8h4.2v14c0,1.5-0.3,2.9-0.9,4.1
				c-0.6,1.2-1.4,2.1-2.4,2.7s-2.2,1-3.6,1h-2.5C89.4,180.5,88.2,180.2,87.1,179.6z"/>
		</g>
		<g class="st6">
			<path class="st7" d="M115.5,175.3h-8l-1.9,5h-4.4l8.4-21.5h1.9c1.3,0,2.2,0.6,2.7,1.8l7.6,19.7h-4.4L115.5,175.3z M108.6,171.7
				h5.8l-2.9-7.7h0L108.6,171.7z"/>
		</g>
		<g class="st6">
			<path class="st7" d="M124.4,179.5c-0.6-0.5-0.8-1.2-0.8-2.1v-18.6h10.3c1.6,0,3.1,0.3,4.3,0.9c1.2,0.6,2.2,1.5,2.9,2.6
				c0.7,1.1,1,2.4,1,3.9v6c0,2.6-0.7,4.6-2.1,6c-1.4,1.4-3.4,2-6,2h-7.4C125.7,180.3,125,180,124.4,179.5z M133.9,176.6
				c1.3,0,2.3-0.4,3-1.1c0.7-0.8,1-1.9,1-3.3v-5.7c0-1.2-0.4-2.1-1.1-2.8c-0.8-0.7-1.8-1.1-3-1.1h-5.9v14H133.9z"/>
			<path class="st7" d="M148.5,179.5c-1.2-0.7-2.2-1.6-2.9-2.9c-0.7-1.2-1-2.7-1-4.3v-5.5c0-1.6,0.3-3.1,1-4.3
				c0.7-1.2,1.6-2.2,2.9-2.9c1.2-0.7,2.7-1,4.3-1h3.3c1.6,0,3,0.3,4.3,1c1.2,0.7,2.2,1.6,2.9,2.9c0.7,1.2,1,2.7,1,4.3v5.5
				c0,1.6-0.3,3.1-1,4.3c-0.7,1.2-1.6,2.2-2.9,2.9c-1.2,0.7-2.7,1-4.3,1h-3.3C151.1,180.5,149.7,180.2,148.5,179.5z M156,176.8
				c1.2,0,2.1-0.4,2.9-1.3c0.7-0.9,1.1-2,1.1-3.4V167c0-1.4-0.4-2.5-1.1-3.4c-0.7-0.9-1.7-1.3-2.9-1.3h-3.3c-1.2,0-2.1,0.4-2.9,1.3
				c-0.7,0.9-1.1,2-1.1,3.4v5.2c0,1.4,0.4,2.5,1.1,3.4c0.7,0.9,1.7,1.3,2.9,1.3H156z"/>
			<path class="st7" d="M168.6,178.7c-1.3-1.3-1.9-3-1.9-5.3h4.2c0,1.1,0.3,1.9,0.8,2.5c0.5,0.6,1.3,0.9,2.3,0.9h3.4
				c0.9,0,1.6-0.2,2.2-0.6c0.6-0.4,0.8-0.9,0.8-1.5v-1c0-1-0.7-1.6-2.2-1.9l-5.7-1c-1.8-0.3-3.2-0.9-4.2-1.8s-1.4-2-1.4-3.3V164
				c0-1.1,0.3-2,0.9-2.9c0.6-0.8,1.4-1.5,2.5-1.9c1.1-0.5,2.3-0.7,3.7-0.7h3.5c1.3,0,2.5,0.3,3.5,0.8c1,0.6,1.8,1.3,2.4,2.3
				s0.8,2.1,0.8,3.5H180c0-0.9-0.2-1.6-0.7-2.1c-0.5-0.5-1.1-0.8-1.9-0.8H174c-0.9,0-1.6,0.2-2.1,0.6c-0.5,0.4-0.8,0.9-0.8,1.5v0.8
				c0,1,0.7,1.7,2.1,1.9l5.6,1c1.9,0.3,3.3,0.9,4.3,1.7c1,0.8,1.5,1.9,1.5,3.2v2c0,1.1-0.3,2-0.9,2.9c-0.6,0.8-1.4,1.5-2.5,2
				c-1.1,0.5-2.3,0.7-3.8,0.7h-3.5C171.6,180.5,169.8,179.9,168.6,178.7z"/>
		</g>
		<g class="st6">
			<path class="st7" d="M2.2,199.7c-0.4-0.2-0.6-0.5-0.8-0.9C1.1,198.4,1,198,1,197.4v-2c0-0.5,0.1-1,0.3-1.4
				c0.2-0.4,0.5-0.7,0.8-0.9s0.8-0.3,1.3-0.3h1.1c0.5,0,0.9,0.1,1.2,0.3c0.4,0.2,0.6,0.5,0.8,0.8c0.2,0.4,0.3,0.8,0.3,1.2H5.9
				c0-0.4-0.1-0.8-0.4-1.1c-0.3-0.3-0.6-0.4-1-0.4H3.5c-0.4,0-0.8,0.2-1.1,0.5c-0.3,0.3-0.4,0.7-0.4,1.3v2c0,0.5,0.1,1,0.4,1.3
				s0.6,0.5,1,0.5h1.1c0.4,0,0.8-0.2,1-0.5s0.4-0.7,0.4-1.2h0.9c0,0.5-0.1,0.9-0.3,1.3c-0.2,0.4-0.5,0.7-0.8,0.9
				C5.4,199.9,5,200,4.5,200H3.4C2.9,200,2.5,199.9,2.2,199.7z"/>
			<path class="st7" d="M8.2,199.5c-0.4-0.4-0.5-0.8-0.5-1.4v-1.3c0-0.6,0.2-1,0.5-1.4c0.4-0.4,0.8-0.5,1.4-0.5h0.8
				c0.6,0,1.1,0.2,1.4,0.5c0.4,0.4,0.5,0.8,0.5,1.4v1.3c0,0.6-0.2,1-0.5,1.4s-0.8,0.5-1.4,0.5H9.6C9.1,200,8.6,199.9,8.2,199.5z
				 M10.5,199.2c0.3,0,0.6-0.1,0.8-0.3s0.3-0.5,0.3-0.8v-1.2c0-0.3-0.1-0.6-0.3-0.8c-0.2-0.2-0.4-0.3-0.8-0.3H9.7
				c-0.3,0-0.6,0.1-0.8,0.3c-0.2,0.2-0.3,0.5-0.3,0.8v1.2c0,0.3,0.1,0.6,0.3,0.8c0.2,0.2,0.4,0.3,0.8,0.3H10.5z"/>
		</g>
		<g class="st6">
			<path class="st7" d="M14,199.6c-0.2-0.2-0.4-0.6-0.4-1.1v-5.6h0.9v5.6c0,0.2,0,0.4,0.1,0.5c0.1,0.1,0.2,0.2,0.5,0.2h0.4v0.8h-0.4
				C14.7,200,14.3,199.8,14,199.6z"/>
		</g>
		<g class="st6">
			<path class="st7" d="M16.8,199.6c-0.2-0.2-0.4-0.6-0.4-1.1v-5.6h0.9v5.6c0,0.2,0,0.4,0.1,0.5c0.1,0.1,0.2,0.2,0.5,0.2h0.4v0.8
				h-0.4C17.4,200,17,199.8,16.8,199.6z"/>
			<path class="st7" d="M19.5,199.6c-0.3-0.3-0.5-0.6-0.5-1v-0.3c0-0.4,0.2-0.8,0.5-1c0.3-0.3,0.7-0.4,1.2-0.4h0.6
				c0.2,0,0.4,0,0.6,0.1c0.2,0.1,0.4,0.1,0.6,0.3v-0.7c0-0.2-0.1-0.4-0.2-0.6s-0.4-0.2-0.6-0.2h-0.8c-0.3,0-0.5,0.1-0.6,0.2
				c-0.2,0.1-0.2,0.3-0.2,0.5h-0.9c0-0.4,0.2-0.8,0.5-1.1c0.3-0.3,0.7-0.4,1.3-0.4h0.8c0.5,0,1,0.1,1.3,0.4s0.5,0.7,0.5,1.2v3.5
				h-0.9v-0.7c-0.2,0.2-0.4,0.4-0.6,0.5s-0.5,0.2-0.8,0.2h-0.6C20.2,200,19.8,199.9,19.5,199.6z M21.3,199.3c0.3,0,0.6-0.1,0.8-0.3
				c0.2-0.2,0.4-0.4,0.5-0.7V198c-0.1-0.1-0.3-0.2-0.5-0.3s-0.4-0.1-0.7-0.1h-0.6c-0.2,0-0.4,0.1-0.6,0.2s-0.2,0.3-0.2,0.5v0.3
				c0,0.2,0.1,0.4,0.2,0.5c0.1,0.1,0.3,0.2,0.6,0.2H21.3z"/>
			<path class="st7" d="M26.3,199.8c-0.2-0.1-0.4-0.3-0.6-0.5v0.6h-0.9v-7h0.9v2.5c0.1-0.2,0.3-0.3,0.6-0.4c0.2-0.1,0.4-0.2,0.7-0.2
				h0.7c0.4,0,0.7,0.1,0.9,0.2s0.5,0.4,0.6,0.7s0.2,0.6,0.2,1v1.2c0,0.4-0.1,0.7-0.2,1s-0.4,0.5-0.7,0.7s-0.6,0.3-1,0.3H27
				C26.7,200,26.5,200,26.3,199.8z M27.6,199.2c0.3,0,0.5-0.1,0.7-0.3s0.3-0.5,0.3-0.9v-1.2c0-0.3-0.1-0.6-0.3-0.8
				c-0.2-0.2-0.4-0.3-0.7-0.3H27c-0.3,0-0.6,0.1-0.8,0.3c-0.2,0.2-0.4,0.5-0.4,0.9v1.1c0,0.3,0.2,0.6,0.4,0.8
				c0.2,0.2,0.5,0.3,0.8,0.3H27.6z"/>
			<path class="st7" d="M31,199.5c-0.4-0.4-0.5-0.8-0.5-1.4v-1.3c0-0.6,0.2-1,0.5-1.4c0.4-0.4,0.8-0.5,1.4-0.5h0.8
				c0.6,0,1.1,0.2,1.4,0.5c0.4,0.4,0.5,0.8,0.5,1.4v1.3c0,0.6-0.2,1-0.5,1.4s-0.8,0.5-1.4,0.5h-0.9C31.9,200,31.4,199.9,31,199.5z
				 M33.3,199.2c0.3,0,0.6-0.1,0.8-0.3s0.3-0.5,0.3-0.8v-1.2c0-0.3-0.1-0.6-0.3-0.8c-0.2-0.2-0.4-0.3-0.8-0.3h-0.8
				c-0.3,0-0.6,0.1-0.8,0.3c-0.2,0.2-0.3,0.5-0.3,0.8v1.2c0,0.3,0.1,0.6,0.3,0.8c0.2,0.2,0.4,0.3,0.8,0.3H33.3z"/>
		</g>
		<g class="st6">
			<path class="st7" d="M36.5,195h0.9v0.7c0.1-0.2,0.3-0.4,0.6-0.5c0.3-0.1,0.5-0.2,0.8-0.2h0.5v0.8h-0.5c-0.4,0-0.7,0.1-1,0.4
				s-0.4,0.6-0.4,1v2.8h-0.9V195z"/>
		</g>
		<g class="st6">
			<path class="st7" d="M40.3,199.6c-0.3-0.3-0.5-0.6-0.5-1v-0.3c0-0.4,0.2-0.8,0.5-1c0.3-0.3,0.7-0.4,1.2-0.4h0.6
				c0.2,0,0.4,0,0.6,0.1c0.2,0.1,0.4,0.1,0.6,0.3v-0.7c0-0.2-0.1-0.4-0.2-0.6s-0.4-0.2-0.6-0.2h-0.8c-0.3,0-0.5,0.1-0.6,0.2
				c-0.2,0.1-0.2,0.3-0.2,0.5H40c0-0.4,0.2-0.8,0.5-1.1c0.3-0.3,0.7-0.4,1.3-0.4h0.8c0.5,0,1,0.1,1.3,0.4s0.5,0.7,0.5,1.2v3.5h-0.9
				v-0.7c-0.2,0.2-0.4,0.4-0.6,0.5s-0.5,0.2-0.8,0.2h-0.6C41,200,40.6,199.9,40.3,199.6z M42.1,199.3c0.3,0,0.6-0.1,0.8-0.3
				c0.2-0.2,0.4-0.4,0.5-0.7V198c-0.1-0.1-0.3-0.2-0.5-0.3s-0.4-0.1-0.7-0.1h-0.6c-0.2,0-0.4,0.1-0.6,0.2s-0.2,0.3-0.2,0.5v0.3
				c0,0.2,0.1,0.4,0.2,0.5c0.1,0.1,0.3,0.2,0.6,0.2H42.1z"/>
			<path class="st7" d="M46.5,199.6c-0.2-0.2-0.4-0.6-0.4-1.2v-2.7h-0.9V195h0.9v-1.5H47v1.5h1.3v0.8H47v2.6c0,0.3,0.1,0.4,0.2,0.6
				c0.1,0.1,0.3,0.2,0.5,0.2h0.6v0.8h-0.7C47.1,200,46.7,199.8,46.5,199.6z"/>
			<path class="st7" d="M49.7,194.1c-0.1-0.1-0.2-0.3-0.2-0.5s0.1-0.3,0.2-0.5c0.1-0.1,0.3-0.2,0.5-0.2c0.2,0,0.3,0.1,0.5,0.2
				c0.1,0.1,0.2,0.3,0.2,0.5s-0.1,0.3-0.2,0.5c-0.1,0.1-0.3,0.2-0.5,0.2C50,194.3,49.9,194.2,49.7,194.1z M49.7,195h0.9v5h-0.9V195z
				"/>
			<path class="st7" d="M52.6,199.5c-0.4-0.4-0.5-0.8-0.5-1.4v-1.3c0-0.6,0.2-1,0.5-1.4c0.4-0.4,0.8-0.5,1.4-0.5h0.8
				c0.6,0,1.1,0.2,1.4,0.5c0.4,0.4,0.5,0.8,0.5,1.4v1.3c0,0.6-0.2,1-0.5,1.4s-0.8,0.5-1.4,0.5H54C53.4,200,52.9,199.9,52.6,199.5z
				 M54.8,199.2c0.3,0,0.6-0.1,0.8-0.3s0.3-0.5,0.3-0.8v-1.2c0-0.3-0.1-0.6-0.3-0.8c-0.2-0.2-0.4-0.3-0.8-0.3H54
				c-0.3,0-0.6,0.1-0.8,0.3c-0.2,0.2-0.3,0.5-0.3,0.8v1.2c0,0.3,0.1,0.6,0.3,0.8c0.2,0.2,0.4,0.3,0.8,0.3H54.8z"/>
			<path class="st7" d="M58,195h0.9v0.7c0.1-0.2,0.3-0.4,0.6-0.6s0.5-0.2,0.7-0.2h0.7c0.5,0,0.9,0.2,1.2,0.5s0.4,0.7,0.4,1.3v3.3
				h-0.9v-3.3c0-0.3-0.1-0.5-0.2-0.7s-0.3-0.3-0.6-0.3h-0.6c-0.3,0-0.5,0.1-0.8,0.3c-0.2,0.2-0.4,0.5-0.5,0.9v3.1H58V195z"/>
			<path class="st7" d="M66.6,192.9h3.5c0.6,0,1,0.2,1.3,0.5c0.3,0.3,0.5,0.7,0.5,1.2v1c0,0.5-0.2,1-0.5,1.3s-0.8,0.5-1.4,0.5h-2.4
				v2.5h-1V192.9z M69.9,196.6c0.3,0,0.6-0.1,0.7-0.3s0.3-0.4,0.3-0.7v-1c0-0.3-0.1-0.5-0.3-0.6c-0.2-0.2-0.4-0.2-0.7-0.2h-2.5v2.8
				H69.9z"/>
			<path class="st7" d="M73.2,199.6c-0.2-0.2-0.4-0.6-0.4-1.1v-5.6h0.9v5.6c0,0.2,0,0.4,0.1,0.5c0.1,0.1,0.2,0.2,0.5,0.2h0.4v0.8
				h-0.4C73.8,200,73.5,199.8,73.2,199.6z"/>
			<path class="st7" d="M75.9,199.6c-0.3-0.3-0.5-0.6-0.5-1v-0.3c0-0.4,0.2-0.8,0.5-1c0.3-0.3,0.7-0.4,1.2-0.4h0.6
				c0.2,0,0.4,0,0.6,0.1c0.2,0.1,0.4,0.1,0.6,0.3v-0.7c0-0.2-0.1-0.4-0.2-0.6s-0.4-0.2-0.6-0.2h-0.8c-0.3,0-0.5,0.1-0.6,0.2
				c-0.2,0.1-0.2,0.3-0.2,0.5h-0.9c0-0.4,0.2-0.8,0.5-1.1c0.3-0.3,0.7-0.4,1.3-0.4h0.8c0.5,0,1,0.1,1.3,0.4s0.5,0.7,0.5,1.2v3.5
				h-0.9v-0.7c-0.2,0.2-0.4,0.4-0.6,0.5S78,200,77.7,200h-0.6C76.6,200,76.2,199.9,75.9,199.6z M77.8,199.3c0.3,0,0.6-0.1,0.8-0.3
				c0.2-0.2,0.4-0.4,0.5-0.7V198c-0.1-0.1-0.3-0.2-0.5-0.3s-0.4-0.1-0.7-0.1h-0.6c-0.2,0-0.4,0.1-0.6,0.2s-0.2,0.3-0.2,0.5v0.3
				c0,0.2,0.1,0.4,0.2,0.5c0.1,0.1,0.3,0.2,0.6,0.2H77.8z"/>
			<path class="st7" d="M82.1,199.6c-0.2-0.2-0.4-0.6-0.4-1.2v-2.7h-0.9V195h0.9v-1.5h0.9v1.5H84v0.8h-1.3v2.6
				c0,0.3,0.1,0.4,0.2,0.6c0.1,0.1,0.3,0.2,0.5,0.2H84v0.8h-0.7C82.8,200,82.4,199.8,82.1,199.6z"/>
		</g>
		<g class="st6">
			<path class="st7" d="M85.7,195.8h-0.9V195h0.9v-0.4c0-0.5,0.1-1,0.5-1.3c0.3-0.3,0.7-0.4,1.3-0.4H88v0.8h-0.5
				c-0.3,0-0.5,0.1-0.6,0.2s-0.2,0.4-0.2,0.7v0.4h1.2v0.8h-1.2v4.2h-0.9V195.8z"/>
		</g>
		<g class="st6">
			<path class="st7" d="M89,199.5c-0.4-0.4-0.5-0.8-0.5-1.4v-1.3c0-0.6,0.2-1,0.5-1.4c0.4-0.4,0.8-0.5,1.4-0.5h0.8
				c0.6,0,1.1,0.2,1.4,0.5c0.4,0.4,0.5,0.8,0.5,1.4v1.3c0,0.6-0.2,1-0.5,1.4s-0.8,0.5-1.4,0.5h-0.9C89.8,200,89.3,199.9,89,199.5z
				 M91.2,199.2c0.3,0,0.6-0.1,0.8-0.3s0.3-0.5,0.3-0.8v-1.2c0-0.3-0.1-0.6-0.3-0.8c-0.2-0.2-0.4-0.3-0.8-0.3h-0.8
				c-0.3,0-0.6,0.1-0.8,0.3c-0.2,0.2-0.3,0.5-0.3,0.8v1.2c0,0.3,0.1,0.6,0.3,0.8c0.2,0.2,0.4,0.3,0.8,0.3H91.2z"/>
			<path class="st7" d="M94.4,195h0.9v0.7c0.1-0.2,0.3-0.4,0.6-0.5c0.3-0.1,0.5-0.2,0.8-0.2h0.5v0.8h-0.5c-0.4,0-0.7,0.1-1,0.4
				s-0.4,0.6-0.4,1v2.8h-0.9V195z"/>
			<path class="st7" d="M104.7,195.3c0.3,0.3,0.4,0.7,0.4,1.2v3.4h-0.9v-3.4c0-0.3-0.1-0.5-0.2-0.6c-0.1-0.1-0.3-0.2-0.5-0.2H103
				c-0.3,0-0.5,0.1-0.6,0.3s-0.3,0.4-0.3,0.7v3.3h-0.9v-3.4c0-0.3-0.1-0.5-0.2-0.6c-0.1-0.2-0.3-0.2-0.4-0.2H100
				c-0.3,0-0.5,0.1-0.7,0.3c-0.2,0.2-0.3,0.5-0.4,0.9v3.1h-0.9v-5H99v0.7c0.1-0.2,0.3-0.4,0.5-0.6c0.2-0.1,0.4-0.2,0.6-0.2h0.6
				c0.3,0,0.5,0.1,0.7,0.2c0.2,0.1,0.4,0.3,0.5,0.6c0.1-0.3,0.3-0.4,0.5-0.6c0.2-0.1,0.4-0.2,0.7-0.2h0.6
				C104.1,194.9,104.5,195,104.7,195.3z"/>
			<path class="st7" d="M106.7,199.6c-0.3-0.3-0.5-0.7-0.5-1.2h0.9c0,0.2,0.1,0.4,0.2,0.6c0.2,0.2,0.4,0.2,0.6,0.2h0.9
				c0.3,0,0.5,0,0.6-0.1c0.2-0.1,0.2-0.2,0.2-0.4v-0.3c0-0.1,0-0.2-0.1-0.3c-0.1-0.1-0.2-0.1-0.3-0.2l-1.7-0.3
				c-0.4-0.1-0.7-0.2-0.9-0.4c-0.2-0.2-0.3-0.5-0.3-0.7v-0.3c0-0.4,0.2-0.7,0.5-1c0.3-0.2,0.7-0.4,1.3-0.4h0.8
				c0.5,0,0.9,0.1,1.2,0.4c0.3,0.3,0.5,0.6,0.5,1.1h-0.9c0-0.2-0.1-0.4-0.2-0.5s-0.3-0.2-0.5-0.2h-0.8c-0.2,0-0.4,0-0.6,0.2
				c-0.1,0.1-0.2,0.2-0.2,0.4v0.3c0,0.1,0,0.2,0.1,0.3c0.1,0.1,0.2,0.1,0.4,0.2l1.8,0.3c0.3,0.1,0.6,0.2,0.8,0.4s0.3,0.4,0.3,0.7
				v0.4c0,0.4-0.2,0.7-0.5,0.9c-0.3,0.2-0.8,0.4-1.3,0.4H108C107.5,200,107,199.9,106.7,199.6z"/>
		</g>
		<g class="st6">
			<path class="st7" d="M115,195.8h-0.9V195h0.9v-0.4c0-0.5,0.1-1,0.5-1.3c0.3-0.3,0.7-0.4,1.3-0.4h0.5v0.8h-0.5
				c-0.3,0-0.5,0.1-0.6,0.2c-0.1,0.1-0.2,0.4-0.2,0.7v0.4h1.2v0.8h-1.2v4.2H115V195.8z"/>
		</g>
		<g class="st6">
			<path class="st7" d="M118.2,199.5c-0.4-0.4-0.5-0.8-0.5-1.4v-1.3c0-0.6,0.2-1,0.5-1.4c0.4-0.4,0.8-0.5,1.4-0.5h0.8
				c0.6,0,1.1,0.2,1.4,0.5c0.4,0.4,0.5,0.8,0.5,1.4v1.3c0,0.6-0.2,1-0.5,1.4c-0.4,0.4-0.8,0.5-1.4,0.5h-0.9
				C119.1,200,118.6,199.9,118.2,199.5z M120.5,199.2c0.3,0,0.6-0.1,0.8-0.3s0.3-0.5,0.3-0.8v-1.2c0-0.3-0.1-0.6-0.3-0.8
				c-0.2-0.2-0.4-0.3-0.8-0.3h-0.8c-0.3,0-0.6,0.1-0.8,0.3c-0.2,0.2-0.3,0.5-0.3,0.8v1.2c0,0.3,0.1,0.6,0.3,0.8
				c0.2,0.2,0.4,0.3,0.8,0.3H120.5z"/>
			<path class="st7" d="M123.7,195h0.9v0.7c0.1-0.2,0.3-0.4,0.6-0.5c0.3-0.1,0.5-0.2,0.8-0.2h0.5v0.8H126c-0.4,0-0.7,0.1-1,0.4
				s-0.4,0.6-0.4,1v2.8h-0.9V195z"/>
			<path class="st7" d="M130.4,199.4c-0.4-0.4-0.6-0.9-0.6-1.6h0.9c0,0.4,0.1,0.7,0.3,0.9s0.5,0.4,0.9,0.4h1.1
				c0.4,0,0.7-0.1,0.9-0.2c0.2-0.2,0.3-0.4,0.3-0.6v-0.5c0-0.2-0.1-0.4-0.2-0.5c-0.2-0.1-0.4-0.2-0.7-0.3l-1.8-0.3
				c-0.5-0.1-0.9-0.3-1.2-0.6s-0.4-0.6-0.4-1.1v-0.6c0-0.5,0.2-0.9,0.6-1.2s0.9-0.5,1.5-0.5h1.1c0.4,0,0.7,0.1,1,0.2
				s0.5,0.4,0.7,0.7c0.2,0.3,0.3,0.6,0.3,1h-0.9c0-0.3-0.1-0.6-0.3-0.8c-0.2-0.2-0.5-0.3-0.8-0.3H132c-0.3,0-0.6,0.1-0.8,0.2
				c-0.2,0.1-0.3,0.4-0.3,0.6v0.5c0,0.2,0.1,0.4,0.2,0.5c0.1,0.1,0.4,0.2,0.6,0.3l1.8,0.3c0.6,0.1,1,0.3,1.3,0.5
				c0.3,0.3,0.4,0.6,0.4,1v0.7c0,0.5-0.2,0.9-0.6,1.2c-0.4,0.3-0.9,0.5-1.6,0.5H132C131.3,200,130.8,199.8,130.4,199.4z"/>
			<path class="st7" d="M136.7,199.5c-0.4-0.4-0.5-0.8-0.5-1.4v-1.3c0-0.6,0.2-1,0.5-1.4c0.4-0.4,0.8-0.5,1.4-0.5h0.8
				c0.6,0,1.1,0.2,1.4,0.5c0.4,0.4,0.5,0.8,0.5,1.4v1.3c0,0.6-0.2,1-0.5,1.4c-0.4,0.4-0.8,0.5-1.4,0.5h-0.9
				C137.6,200,137.1,199.9,136.7,199.5z M139,199.2c0.3,0,0.6-0.1,0.8-0.3s0.3-0.5,0.3-0.8v-1.2c0-0.3-0.1-0.6-0.3-0.8
				c-0.2-0.2-0.4-0.3-0.8-0.3h-0.8c-0.3,0-0.6,0.1-0.8,0.3c-0.2,0.2-0.3,0.5-0.3,0.8v1.2c0,0.3,0.1,0.6,0.3,0.8
				c0.2,0.2,0.4,0.3,0.8,0.3H139z"/>
			<path class="st7" d="M142.5,199.5c-0.4-0.3-0.5-0.8-0.5-1.4v-1.3c0-0.6,0.2-1.1,0.5-1.4c0.4-0.4,0.8-0.5,1.4-0.5h0.8
				c0.5,0,1,0.2,1.3,0.5c0.3,0.3,0.5,0.7,0.5,1.2h-0.9c0-0.3-0.1-0.5-0.2-0.6c-0.2-0.2-0.4-0.2-0.7-0.2h-0.8c-0.3,0-0.5,0.1-0.7,0.3
				c-0.2,0.2-0.3,0.5-0.3,0.8v1.3c0,0.3,0.1,0.6,0.3,0.8c0.2,0.2,0.4,0.3,0.7,0.3h0.8c0.3,0,0.5-0.1,0.7-0.3
				c0.2-0.2,0.3-0.5,0.3-0.8h0.9c0,0.6-0.2,1-0.5,1.4c-0.3,0.4-0.8,0.5-1.3,0.5h-0.8C143.3,200,142.9,199.9,142.5,199.5z"/>
			<path class="st7" d="M147.8,194.1c-0.1-0.1-0.2-0.3-0.2-0.5s0.1-0.3,0.2-0.5c0.1-0.1,0.3-0.2,0.5-0.2s0.3,0.1,0.5,0.2
				c0.1,0.1,0.2,0.3,0.2,0.5s-0.1,0.3-0.2,0.5c-0.1,0.1-0.3,0.2-0.5,0.2S147.9,194.2,147.8,194.1z M147.8,195h0.9v5h-0.9V195z"/>
			<path class="st7" d="M150.6,199.6c-0.3-0.3-0.5-0.6-0.5-1v-0.3c0-0.4,0.2-0.8,0.5-1s0.7-0.4,1.2-0.4h0.6c0.2,0,0.4,0,0.6,0.1
				c0.2,0.1,0.4,0.1,0.6,0.3v-0.7c0-0.2-0.1-0.4-0.2-0.6s-0.4-0.2-0.6-0.2h-0.8c-0.3,0-0.5,0.1-0.6,0.2c-0.2,0.1-0.2,0.3-0.2,0.5
				h-0.9c0-0.4,0.2-0.8,0.5-1.1c0.3-0.3,0.7-0.4,1.3-0.4h0.8c0.5,0,1,0.1,1.3,0.4s0.5,0.7,0.5,1.2v3.5h-0.9v-0.7
				c-0.2,0.2-0.4,0.4-0.6,0.5s-0.5,0.2-0.8,0.2h-0.6C151.3,200,150.9,199.9,150.6,199.6z M152.5,199.3c0.3,0,0.6-0.1,0.8-0.3
				c0.2-0.2,0.4-0.4,0.5-0.7V198c-0.1-0.1-0.3-0.2-0.5-0.3c-0.2-0.1-0.4-0.1-0.7-0.1h-0.6c-0.2,0-0.4,0.1-0.6,0.2
				c-0.1,0.1-0.2,0.3-0.2,0.5v0.3c0,0.2,0.1,0.4,0.2,0.5c0.1,0.1,0.3,0.2,0.6,0.2H152.5z"/>
			<path class="st7" d="M156.3,199.6c-0.2-0.2-0.4-0.6-0.4-1.1v-5.6h0.9v5.6c0,0.2,0,0.4,0.1,0.5c0.1,0.1,0.2,0.2,0.5,0.2h0.4v0.8
				h-0.4C156.9,200,156.6,199.8,156.3,199.6z"/>
			<path class="st7" d="M162.4,199.7c-0.4-0.2-0.6-0.5-0.8-0.9c-0.2-0.4-0.3-0.8-0.3-1.4v-2c0-0.5,0.1-1,0.3-1.4
				c0.2-0.4,0.5-0.7,0.9-0.9s0.8-0.3,1.3-0.3h1.1c0.5,0,0.9,0.1,1.2,0.3c0.4,0.2,0.6,0.5,0.8,0.8s0.3,0.8,0.3,1.2h-0.9
				c0-0.4-0.1-0.8-0.4-1.1c-0.3-0.3-0.6-0.4-1-0.4h-1.1c-0.4,0-0.8,0.2-1.1,0.5s-0.4,0.7-0.4,1.3v2c0,0.5,0.1,1,0.4,1.3
				s0.6,0.5,1,0.5h1.1c0.4,0,0.8-0.2,1-0.5c0.3-0.3,0.4-0.7,0.4-1.2v-0.5h-1.9v-0.8h2.9v1.3c0,0.5-0.1,0.9-0.3,1.3
				c-0.2,0.4-0.5,0.7-0.8,0.9c-0.4,0.2-0.8,0.3-1.2,0.3h-1.1C163.2,200,162.8,199.9,162.4,199.7z"/>
			<path class="st7" d="M168.7,199.5c-0.4-0.4-0.5-0.8-0.5-1.4v-1.3c0-0.6,0.2-1,0.5-1.4c0.4-0.4,0.8-0.5,1.4-0.5h0.8
				c0.6,0,1.1,0.2,1.4,0.5c0.4,0.4,0.5,0.8,0.5,1.4v1.3c0,0.6-0.2,1-0.5,1.4c-0.4,0.4-0.8,0.5-1.4,0.5h-0.9
				C169.5,200,169.1,199.9,168.7,199.5z M171,199.2c0.3,0,0.6-0.1,0.8-0.3s0.3-0.5,0.3-0.8v-1.2c0-0.3-0.1-0.6-0.3-0.8
				c-0.2-0.2-0.4-0.3-0.8-0.3h-0.8c-0.3,0-0.6,0.1-0.8,0.3c-0.2,0.2-0.3,0.5-0.3,0.8v1.2c0,0.3,0.1,0.6,0.3,0.8
				c0.2,0.2,0.4,0.3,0.8,0.3H171z"/>
			<path class="st7" d="M174.5,199.5c-0.4-0.4-0.5-0.8-0.5-1.4v-1.3c0-0.6,0.2-1,0.5-1.4c0.4-0.4,0.8-0.5,1.4-0.5h0.8
				c0.6,0,1.1,0.2,1.4,0.5c0.4,0.4,0.5,0.8,0.5,1.4v1.3c0,0.6-0.2,1-0.5,1.4c-0.4,0.4-0.8,0.5-1.4,0.5h-0.9
				C175.3,200,174.9,199.9,174.5,199.5z M176.8,199.2c0.3,0,0.6-0.1,0.8-0.3s0.3-0.5,0.3-0.8v-1.2c0-0.3-0.1-0.6-0.3-0.8
				c-0.2-0.2-0.4-0.3-0.8-0.3h-0.8c-0.3,0-0.6,0.1-0.8,0.3c-0.2,0.2-0.3,0.5-0.3,0.8v1.2c0,0.3,0.1,0.6,0.3,0.8s0.4,0.3,0.8,0.3
				H176.8z"/>
			<path class="st7" d="M180.3,199.5c-0.3-0.4-0.5-0.8-0.5-1.4v-1.2c0-0.4,0.1-0.8,0.2-1.1c0.2-0.3,0.4-0.6,0.7-0.7
				c0.3-0.2,0.6-0.3,1-0.3h0.7c0.2,0,0.4,0,0.6,0.2c0.2,0.1,0.4,0.2,0.5,0.4v-2.5h0.9v7h-0.9v-0.7c-0.1,0.2-0.3,0.4-0.6,0.6
				c-0.2,0.1-0.5,0.2-0.7,0.2h-0.7C181,200,180.6,199.9,180.3,199.5z M182.3,199.2c0.3,0,0.6-0.1,0.8-0.4s0.4-0.6,0.4-0.9v-1.1
				c0-0.3-0.2-0.6-0.4-0.8c-0.2-0.2-0.4-0.3-0.7-0.3h-0.7c-0.3,0-0.6,0.1-0.8,0.3c-0.2,0.2-0.3,0.5-0.3,0.9v1.1
				c0,0.3,0.1,0.6,0.3,0.8c0.2,0.2,0.4,0.3,0.7,0.3H182.3z"/>
		</g>
	</g>
</g>
</svg>
