<?xml version="1.0" encoding="UTF-8" standalone="no"?>
<!-- Created with Inkscape (http://www.inkscape.org/) -->

<svg
   xmlns:dc="http://purl.org/dc/elements/1.1/"
   xmlns:cc="http://creativecommons.org/ns#"
   xmlns:rdf="http://www.w3.org/1999/02/22-rdf-syntax-ns#"
   xmlns:svg="http://www.w3.org/2000/svg"
   xmlns="http://www.w3.org/2000/svg"
   xmlns:sodipodi="http://sodipodi.sourceforge.net/DTD/sodipodi-0.dtd"
   xmlns:inkscape="http://www.inkscape.org/namespaces/inkscape"
   width="210mm"
   height="297mm"
   viewBox="0 0 210 297"
   version="1.1"
   id="svg526"
   inkscape:version="0.92.5 (2060ec1f9f, 2020-04-08)"
   sodipodi:docname="logo_.svg">
  <defs
     id="defs520" />
  <sodipodi:namedview
     id="base"
     pagecolor="#ffffff"
     bordercolor="#666666"
     borderopacity="1.0"
     inkscape:pageopacity="0.0"
     inkscape:pageshadow="2"
     inkscape:zoom="0.35"
     inkscape:cx="-115.71429"
     inkscape:cy="560"
     inkscape:document-units="mm"
     inkscape:current-layer="layer1"
     showgrid="false"
     inkscape:window-width="1920"
     inkscape:window-height="968"
     inkscape:window-x="0"
     inkscape:window-y="27"
     inkscape:window-maximized="1" />
  <metadata
     id="metadata523">
    <rdf:RDF>
      <cc:Work
         rdf:about="">
        <dc:format>image/svg+xml</dc:format>
        <dc:type
           rdf:resource="http://purl.org/dc/dcmitype/StillImage" />
        <dc:title></dc:title>
      </cc:Work>
    </rdf:RDF>
  </metadata>
  <g
     inkscape:label="Layer 1"
     inkscape:groupmode="layer"
     id="layer1">
    <g
       id="g1825"
       inkscape:label="card_engajados_1"
       transform="matrix(1.7865338,0,0,-1.7865338,-25.788274,271.92649)"
       inkscape:export-filename="/home/ricardo/projetos/engajados/resources/logo.png"
       inkscape:export-xdpi="96"
       inkscape:export-ydpi="96">
      <g
         id="g1483"
         transform="translate(78.5493,51.2973)">
        <path
           d="m 0,0 v -0.003 -6.116 h -0.003 l -5.295,-3.059 v -6.119 L 0,-12.236 5.298,-9.178 v 6.117 6.116 0.003 z"
           style="fill:#fbb040;fill-opacity:1;fill-rule:nonzero;stroke:none"
           id="path1481"
           inkscape:connector-curvature="0" />
      </g>
      <g
         id="g1487"
         transform="translate(73.251,48.2391)">
        <path
           d="M 0,0 V -0.003 -6.12 l 5.295,3.059 H 5.298 V 3.055 H 5.295 Z"
           style="fill:#f7941e;fill-opacity:1;fill-rule:nonzero;stroke:none"
           id="path1485"
           inkscape:connector-curvature="0" />
      </g>
      <g
         id="g1491"
         transform="translate(73.251,48.236)">
        <path
           d="M 0,0 V 0.003 L 5.295,3.058 0,6.117 -5.298,3.058 -0.003,0 Z"
           style="fill:#27aae1;fill-opacity:1;fill-rule:nonzero;stroke:none"
           id="path1489"
           inkscape:connector-curvature="0" />
      </g>
      <g
         id="g1495"
         transform="translate(73.2482,48.236)">
        <path
           d="M 0,0 -5.296,3.058 V -3.058 L 0.003,-6.117 V 0 Z"
           style="fill:#d7df23;fill-opacity:1;fill-rule:nonzero;stroke:none"
           id="path1493"
           inkscape:connector-curvature="0" />
      </g>
      <g
         id="g1499"
         transform="translate(73.251,54.3529)">
        <path
           d="m 0,0 5.295,-3.058 0.003,0.003 5.299,3.058 -5.299,3.055 V 3.061 L 0,6.12 -5.298,3.061 -10.597,0 -5.298,-3.058 Z"
           style="fill:#44c8f5;fill-opacity:1;fill-rule:nonzero;stroke:none"
           id="path1497"
           inkscape:connector-curvature="0" />
      </g>
      <g
         id="g1503"
         transform="translate(62.6544,48.2391)">
        <path
           d="M 0,0 V -0.003 -6.12 l 5.298,-3.058 5.299,-3.061 V -6.12 L 5.298,-3.061 V 3.055 L 0,6.114 Z"
           style="fill:#f9ed32;fill-opacity:1;fill-rule:nonzero;stroke:none"
           id="path1501"
           inkscape:connector-curvature="0" />
      </g>
      <g
         id="g1507"
         transform="translate(78.5495,100.2393)">
        <path
           d="m 0,0 v -6.111 -0.003 l 5.298,-3.055 v 6.111 6.116 0.003 L 0,0.003 Z"
           style="fill:#fbb040;fill-opacity:1;fill-rule:nonzero;stroke:none"
           id="path1505"
           inkscape:connector-curvature="0" />
      </g>
      <g
         id="g1511"
         transform="translate(78.5466,88.0092)">
        <path
           d="M 0,0 H 0.003 V 0.003 Z"
           style="fill:#fbb040;fill-opacity:1;fill-rule:nonzero;stroke:none"
           id="path1509"
           inkscape:connector-curvature="0" />
      </g>
      <g
         id="g1515"
         transform="translate(78.5463,100.2393)">
        <path
           d="M 0,0 -5.293,-3.054 0.003,-6.111 V 0 Z"
           style="fill:#f7941e;fill-opacity:1;fill-rule:nonzero;stroke:none"
           id="path1513"
           inkscape:connector-curvature="0" />
      </g>
      <g
         id="g1519"
         transform="translate(73.251,103.2977)">
        <path
           d="M 0,0 -5.298,-3.058 -0.007,-6.115 0,-6.111 0.003,-6.112 5.295,-3.058 Z"
           style="fill:#27aae1;fill-opacity:1;fill-rule:nonzero;stroke:none"
           id="path1517"
           inkscape:connector-curvature="0" />
      </g>
      <g
         id="g1523"
         transform="translate(67.9525,94.1285)">
        <path
           d="M 0,0 5.292,3.055 0,6.111 Z"
           style="fill:#d7df23;fill-opacity:1;fill-rule:nonzero;stroke:none"
           id="path1521"
           inkscape:connector-curvature="0" />
      </g>
      <g
         id="g1527"
         transform="translate(73.251,109.4175)">
        <path
           d="M 0,0 -5.298,-3.058 -10.597,-6.12 -5.298,-9.178 0,-6.12 l 5.296,-3.058 0.002,0.003 5.299,3.058 -5.299,3.055 v 0.004 z"
           style="fill:#44c8f5;fill-opacity:1;fill-rule:nonzero;stroke:none"
           id="path1525"
           inkscape:connector-curvature="0" />
      </g>
      <g
         id="g1531"
         transform="translate(67.9525,100.2393)">
        <path
           d="M 0,0 -5.298,3.058 V -3.055 -3.058 -9.172 L 0,-6.111 Z"
           style="fill:#f9ed32;fill-opacity:1;fill-rule:nonzero;stroke:none"
           id="path1529"
           inkscape:connector-curvature="0" />
      </g>
      <g
         id="g1535"
         transform="translate(78.5495,88.0088)">
        <path
           d="M 0,0 V -0.003 -6.117 -6.12 l 5.298,-3.055 v 6.111 0.003 0.003 6.111 0.002 0.003 0.003 L 0,0.003 Z"
           style="fill:#fbb040;fill-opacity:1;fill-rule:nonzero;stroke:none"
           id="path1533"
           inkscape:connector-curvature="0" />
      </g>
      <g
         id="g1539"
         transform="translate(78.5495,81.8837)">
        <path
           d="M 0,0 5.293,-3.053 5.298,-3.05 0,0.006 V 0.003 Z"
           style="fill:#fbb040;fill-opacity:1;fill-rule:nonzero;stroke:none"
           id="path1537"
           inkscape:connector-curvature="0" />
      </g>
      <g
         id="g1543"
         transform="translate(78.5466,81.8919)">
        <path
           d="M 0,0 -0.004,-0.002 0.003,-0.005 V -0.003 0 Z"
           style="fill:#fbb040;fill-opacity:1;fill-rule:nonzero;stroke:none"
           id="path1541"
           inkscape:connector-curvature="0" />
      </g>
      <g
         id="g1547"
         transform="translate(73.251,84.9503)">
        <path
           d="M 0,0 5.295,-3.058 H 5.298 V 3.056 3.058 H 5.295 L 0,0.003 Z"
           style="fill:#f7941e;fill-opacity:1;fill-rule:nonzero;stroke:none"
           id="path1545"
           inkscape:connector-curvature="0" />
      </g>
      <g
         id="g1551"
         transform="translate(73.251,84.9503)">
        <path
           d="M 0,0 V -0.005 L 5.292,-3.06 5.295,-3.058 Z"
           style="fill:#f7941e;fill-opacity:1;fill-rule:nonzero;stroke:none"
           id="path1549"
           inkscape:connector-curvature="0" />
      </g>
      <g
         id="g1555"
         transform="translate(73.251,84.9451)">
        <path
           d="m 0,0 v 0.005 h -0.003 l -5.295,-3.058 0.005,-0.003 z"
           style="fill:#d7df23;fill-opacity:1;fill-rule:nonzero;stroke:none"
           id="path1553"
           inkscape:connector-curvature="0" />
      </g>
      <g
         id="g1559"
         transform="translate(73.251,84.9503)">
        <path
           d="M 0,0 V 0.003 L 5.295,3.058 0,6.117 -5.298,3.058 -0.003,0 Z"
           style="fill:#27aae1;fill-opacity:1;fill-rule:nonzero;stroke:none"
           id="path1557"
           inkscape:connector-curvature="0" />
      </g>
      <g
         id="g1563"
         transform="translate(67.9527,81.8865)">
        <path
           d="M 0,0 0.005,0.003 0,0.005 Z"
           style="fill:#f9ed32;fill-opacity:1;fill-rule:nonzero;stroke:none"
           id="path1561"
           inkscape:connector-curvature="0" />
      </g>
      <g
         id="g1567"
         transform="translate(67.9525,88.0088)">
        <path
           d="m 0,0 v -0.003 -6.114 l 5.296,3.059 z"
           style="fill:#d7df23;fill-opacity:1;fill-rule:nonzero;stroke:none"
           id="path1565"
           inkscape:connector-curvature="0" />
      </g>
      <g
         id="g1571"
         transform="translate(62.6616,78.8296)">
        <path
           d="M 0,0 5.291,3.057 V 3.063 L -0.007,0.004 Z"
           style="fill:#f9ed32;fill-opacity:1;fill-rule:nonzero;stroke:none"
           id="path1569"
           inkscape:connector-curvature="0" />
      </g>
      <g
         id="g1575"
         transform="translate(73.251,91.0673)">
        <path
           d="m 0,0 5.295,-3.058 0.003,0.003 5.299,3.058 -5.299,3.055 V 3.061 L 0.003,6.118 0,6.12 -0.007,6.116 -5.298,3.061 -10.597,0 -5.298,-3.058 Z"
           style="fill:#44c8f5;fill-opacity:1;fill-rule:nonzero;stroke:none"
           id="path1573"
           inkscape:connector-curvature="0" />
      </g>
      <g
         id="g1579"
         transform="translate(62.6544,91.0613)">
        <path
           d="m 0,0 v -6.117 -6.111 l 5.298,3.059 v 6.114 0.002 L 0,0.006 v -0.003 0 z"
           style="fill:#f9ed32;fill-opacity:1;fill-rule:nonzero;stroke:none"
           id="path1577"
           inkscape:connector-curvature="0" />
      </g>
      <g
         id="g1583"
         transform="translate(94.4471,66.5873)">
        <path
           d="M 0,0 5.293,-3.057 5.296,-3.054 10.594,0.005 5.296,3.06 V 3.063 L 0,6.12 V 0.005 Z"
           style="fill:#44c8f5;fill-opacity:1;fill-rule:nonzero;stroke:none"
           id="path1581"
           inkscape:connector-curvature="0" />
      </g>
      <g
         id="g1587"
         transform="translate(99.7427,63.5304)">
        <path
           d="m 0,0 v -6.116 h -0.003 l -5.295,-3.059 v -6.119 L 0,-12.233 5.298,-9.175 v 6.117 6.116 0.003 L 0,0.003 Z"
           style="fill:#fbb040;fill-opacity:1;fill-rule:nonzero;stroke:none"
           id="path1585"
           inkscape:connector-curvature="0" />
      </g>
      <g
         id="g1591"
         transform="translate(94.4471,66.5873)">
        <path
           d="m 0,0 v -6.111 l 5.293,3.054 z"
           style="fill:#27aae1;fill-opacity:1;fill-rule:nonzero;stroke:none"
           id="path1589"
           inkscape:connector-curvature="0" />
      </g>
      <g
         id="g1595"
         transform="translate(94.4445,54.3555)">
        <path
           d="M 0,0 5.295,3.058 H 5.298 V 9.175 H 5.295 L 0.003,6.121 V 6.12 L 0,6.118 V 6.117 Z"
           style="fill:#f7941e;fill-opacity:1;fill-rule:nonzero;stroke:none"
           id="path1593"
           inkscape:connector-curvature="0" />
      </g>
      <g
         id="g1599"
         transform="translate(94.4445,54.3555)">
        <path
           d="M 0,0 V 6.117 H -0.003 L -0.944,5.573 -5.298,3.058 Z"
           style="fill:#d7df23;fill-opacity:1;fill-rule:nonzero;stroke:none"
           id="path1597"
           inkscape:connector-curvature="0" />
      </g>
      <g
         id="g1603"
         transform="translate(94.4415,60.4719)">
        <path
           d="M 0,0 H 0.003 V 0.002 Z"
           style="fill:#27aae1;fill-opacity:1;fill-rule:nonzero;stroke:none"
           id="path1601"
           inkscape:connector-curvature="0" />
      </g>
      <g
         id="g1607"
         transform="translate(89.1459,69.6501)">
        <path
           d="M 0,0 H 0.003 V 0.002 Z"
           style="fill:#44c8f5;fill-opacity:1;fill-rule:nonzero;stroke:none"
           id="path1605"
           inkscape:connector-curvature="0" />
      </g>
      <g
         id="g1611"
         transform="translate(93.5009,59.929)">
        <path
           d="M 0,0 -4.352,-2.512 -4.355,-2.514 V -2.515 Z"
           style="fill:#d7df23;fill-opacity:1;fill-rule:nonzero;stroke:none"
           id="path1609"
           inkscape:connector-curvature="0" />
      </g>
      <g
         id="g1615"
         transform="translate(89.146,57.414)">
        <path
           d="m 0,0 -2.525,-1.458 -2.77,-1.6 H -5.297 -5.298 L 0,-6.117 5.298,-9.178 v 6.12 z"
           style="fill:#f9ed32;fill-opacity:1;fill-rule:nonzero;stroke:none"
           id="path1613"
           inkscape:connector-curvature="0" />
      </g>
      <g
         id="g1619"
         transform="translate(89.145,57.4146)">
        <path
           d="M 0,0 0.001,-0.001 V 0 Z"
           style="fill:#f9ed32;fill-opacity:1;fill-rule:nonzero;stroke:none"
           id="path1617"
           inkscape:connector-curvature="0" />
      </g>
      <g
         id="g1623"
         transform="translate(89.145,57.4145)">
        <path
           d="m 0,0 -2.524,-1.458 2.525,1.457 z"
           style="fill:#f9ed32;fill-opacity:1;fill-rule:nonzero;stroke:none"
           id="path1621"
           inkscape:connector-curvature="0" />
      </g>
      <g
         id="g1627"
         transform="translate(83.8476,54.3555)">
        <path
           d="M 0,0 0.002,0.001 0,0.002 Z"
           style="fill:#f9ed32;fill-opacity:1;fill-rule:nonzero;stroke:none"
           id="path1625"
           inkscape:connector-curvature="0" />
      </g>
      <g
         id="g1631"
         transform="translate(57.3561,57.4142)">
        <path
           d="m 0,0 v -0.003 l 5.298,-3.055 v 0 L 0.002,0.001 Z"
           style="fill:#fbb040;fill-opacity:1;fill-rule:nonzero;stroke:none"
           id="path1629"
           inkscape:connector-curvature="0" />
      </g>
      <g
         id="g1635"
         transform="translate(57.3561,57.4146)">
        <path
           d="M 0,0 0.003,0.001 0,0.002 Z"
           style="fill:#fbb040;fill-opacity:1;fill-rule:nonzero;stroke:none"
           id="path1633"
           inkscape:connector-curvature="0" />
      </g>
      <g
         id="g1639"
         transform="translate(57.353,57.4142)">
        <path
           d="m 0,0 h 0.003 v 0.003 0 L -5.295,3.061 V 3.058 Z"
           style="fill:#f7941e;fill-opacity:1;fill-rule:nonzero;stroke:none"
           id="path1637"
           inkscape:connector-curvature="0" />
      </g>
      <g
         id="g1643"
         transform="translate(57.3561,57.4142)">
        <path
           d="m 0,0 h -0.003 l -5.295,-3.058 v -6.12 L 0,-6.117 5.298,-3.058 0,-0.003 Z"
           style="fill:#fbb040;fill-opacity:1;fill-rule:nonzero;stroke:none"
           id="path1641"
           inkscape:connector-curvature="0" />
      </g>
      <g
         id="g1647"
         transform="translate(52.0577,54.3557)">
        <path
           d="M 0,0 5.295,3.058 0,6.117 Z"
           style="fill:#f7941e;fill-opacity:1;fill-rule:nonzero;stroke:none"
           id="path1645"
           inkscape:connector-curvature="0" />
      </g>
      <g
         id="g1651"
         transform="translate(52.0549,60.4723)">
        <path
           d="m 0,0 h 0.003 v 0.003 0 6.114 L -5.296,3.058 Z"
           style="fill:#27aae1;fill-opacity:1;fill-rule:nonzero;stroke:none"
           id="path1649"
           inkscape:connector-curvature="0" />
      </g>
      <g
         id="g1655"
         transform="translate(52.0549,60.4723)">
        <path
           d="M 0,0 -5.296,3.058 V -3.058 L 0.003,-6.117 V 0 Z"
           style="fill:#d7df23;fill-opacity:1;fill-rule:nonzero;stroke:none"
           id="path1653"
           inkscape:connector-curvature="0" />
      </g>
      <g
         id="g1659"
         transform="translate(46.7595,69.6501)">
        <path
           d="M 0,0 -5.298,-3.061 0,-6.119 5.298,-3.061 v 0.003 0.003 6.113 z"
           style="fill:#44c8f5;fill-opacity:1;fill-rule:nonzero;stroke:none"
           id="path1657"
           inkscape:connector-curvature="0" />
      </g>
      <g
         id="g1663"
         transform="translate(41.4612,60.4755)">
        <path
           d="M 0,0 V -0.004 -6.12 l 5.298,-3.058 5.299,-3.061 V -6.12 L 5.298,-3.061 V 3.056 L 0,6.114 Z"
           style="fill:#f9ed32;fill-opacity:1;fill-rule:nonzero;stroke:none"
           id="path1661"
           inkscape:connector-curvature="0" />
      </g>
      <g
         id="g1667"
         transform="translate(89.149,75.7669)">
        <path
           d="M 0,0 V 0.001 L -0.003,0.003 -5.298,3.06 V -3.058 L -0.003,-6.117 0,-6.114 5.294,-3.058 1.073,-0.619 Z"
           style="fill:#44c8f5;fill-opacity:1;fill-rule:nonzero;stroke:none"
           id="path1665"
           inkscape:connector-curvature="0" />
      </g>
      <g
         id="g1671"
         transform="translate(94.4434,72.7093)">
        <path
           d="m 0,0 -5.294,-3.056 v -10e-4 -0.002 -6.117 h -0.003 l -5.296,-3.058 v -6.119 l 2.77,1.6 2.525,1.458 0.001,10e-4 0.003,0.002 4.351,2.512 0.941,0.543 0.003,10e-4 0.003,0.002 v 10e-4 6.111 0.005 6.115 0.001 0.002 L 0.001,-0.001 Z"
           style="fill:#fbb040;fill-opacity:1;fill-rule:nonzero;stroke:none"
           id="path1669"
           inkscape:connector-curvature="0" />
      </g>
      <g
         id="g1675"
         transform="translate(89.146,69.6501)">
        <path
           d="M 0,0 -5.295,3.058 V -3.055 Z"
           style="fill:#27aae1;fill-opacity:1;fill-rule:nonzero;stroke:none"
           id="path1673"
           inkscape:connector-curvature="0" />
      </g>
      <g
         id="g1679"
         transform="translate(89.146,69.6501)">
        <path
           d="M 0,0 -5.295,-3.055 V -3.058 -9.175 L 0,-6.116 H 0.003 V 0 Z"
           style="fill:#f7941e;fill-opacity:1;fill-rule:nonzero;stroke:none"
           id="path1677"
           inkscape:connector-curvature="0" />
      </g>
      <g
         id="g1683"
         transform="translate(83.8477,66.5918)">
        <path
           d="M 0,0 -5.296,-3.058 0.003,-6.117 V 0 Z"
           style="fill:#d7df23;fill-opacity:1;fill-rule:nonzero;stroke:none"
           id="path1681"
           inkscape:connector-curvature="0" />
      </g>
      <g
         id="g1687"
         transform="translate(83.8476,72.7074)">
        <path
           d="m 0,0 v -6.115 h 0.003 v 0.002 6.114 z"
           style="fill:#27aae1;fill-opacity:1;fill-rule:nonzero;stroke:none"
           id="path1685"
           inkscape:connector-curvature="0" />
      </g>
      <g
         id="g1691"
         transform="translate(83.8476,78.8265)">
        <path
           d="M 0,0 V -0.001 -6.116 L 0.003,-6.118 V 0 L 0.001,0.001 Z"
           style="fill:#44c8f5;fill-opacity:1;fill-rule:nonzero;stroke:none"
           id="path1689"
           inkscape:connector-curvature="0" />
      </g>
      <g
         id="g1695"
         transform="translate(83.8476,72.7083)">
        <path
           d="M 0,0 V -0.001 L 0.003,0 0,0.002 Z"
           style="fill:#44c8f5;fill-opacity:1;fill-rule:nonzero;stroke:none"
           id="path1693"
           inkscape:connector-curvature="0" />
      </g>
      <g
         id="g1699"
         transform="translate(83.8477,66.5918)">
        <path
           d="M 0,0 V 0 L -5.296,-3.057 V -3.058 Z"
           style="fill:#d7df23;fill-opacity:1;fill-rule:nonzero;stroke:none"
           id="path1697"
           inkscape:connector-curvature="0" />
      </g>
      <g
         id="g1703"
         transform="translate(75.5233,61.7853)">
        <path
           d="m 0,0 -2.268,-1.311 5.297,-3.057 5.295,-3.06 0.002,-0.001 H 8.327 V -1.31 L 3.029,1.748 Z"
           style="fill:#f9ed32;fill-opacity:1;fill-rule:nonzero;stroke:none"
           id="path1701"
           inkscape:connector-curvature="0" />
      </g>
      <g
         id="g1707"
         transform="translate(78.5511,63.5346)">
        <path
           d="M 0,0 0.001,-0.001 V 0.001 Z"
           style="fill:#f9ed32;fill-opacity:1;fill-rule:nonzero;stroke:none"
           id="path1705"
           inkscape:connector-curvature="0" />
      </g>
      <g
         id="g1711"
         transform="translate(78.5466,75.7665)">
        <path
           d="M 0,0 H 0.003 V 0.002 Z"
           style="fill:#44c8f5;fill-opacity:1;fill-rule:nonzero;stroke:none"
           id="path1709"
           inkscape:connector-curvature="0" />
      </g>
      <g
         id="g1715"
         transform="translate(78.5507,63.5344)">
        <path
           d="m 0,0 -0.001,-0.001 -3.026,-1.748 3.028,1.748 z"
           style="fill:#f9ed32;fill-opacity:1;fill-rule:nonzero;stroke:none"
           id="path1713"
           inkscape:connector-curvature="0" />
      </g>
      <g
         id="g1719"
         transform="translate(70.6808,61.9576)">
        <path
           d="M 0,0 -2.728,1.576 V 1.573 Z"
           style="fill:#fbb040;fill-opacity:1;fill-rule:nonzero;stroke:none"
           id="path1717"
           inkscape:connector-curvature="0" />
      </g>
      <g
         id="g1723"
         transform="translate(67.9498,63.5337)">
        <path
           d="m 0,0 h 0.003 l -5.298,3.058 v 0 z"
           style="fill:#f7941e;fill-opacity:1;fill-rule:nonzero;stroke:none"
           id="path1721"
           inkscape:connector-curvature="0" />
      </g>
      <g
         id="g1727"
         transform="translate(62.6544,78.8274)">
        <path
           d="M 0,0 V -0.002 L 0.003,-0.001 0,0.001 Z"
           style="fill:#44c8f5;fill-opacity:1;fill-rule:nonzero;stroke:none"
           id="path1725"
           inkscape:connector-curvature="0" />
      </g>
      <g
         id="g1731"
         transform="translate(67.9527,63.5307)">
        <path
           d="m 0,0 v 0.003 0 H -0.003 L -5.298,-3.055 V -3.058 -9.175 L 0,-6.114 5.296,-3.057 2.728,-1.573 Z"
           style="fill:#fbb040;fill-opacity:1;fill-rule:nonzero;stroke:none"
           id="path1729"
           inkscape:connector-curvature="0" />
      </g>
      <g
         id="g1735"
         transform="translate(62.6543,66.5891)">
        <path
           d="M 0,0 V -6.114 L 5.295,-3.055 0,0.003 Z"
           style="fill:#f7941e;fill-opacity:1;fill-rule:nonzero;stroke:none"
           id="path1733"
           inkscape:connector-curvature="0" />
      </g>
      <g
         id="g1739"
         transform="translate(62.6515,66.5918)">
        <path
           d="M 0,0 H 0.003 V 0 0.003 6.117 L -5.296,3.058 Z"
           style="fill:#27aae1;fill-opacity:1;fill-rule:nonzero;stroke:none"
           id="path1737"
           inkscape:connector-curvature="0" />
      </g>
      <g
         id="g1743"
         transform="translate(62.6543,66.5918)">
        <path
           d="M 0,0 H -0.003 L -5.298,3.058 V -3.058 L 0,-6.117 v 6.114 z"
           style="fill:#d7df23;fill-opacity:1;fill-rule:nonzero;stroke:none"
           id="path1741"
           inkscape:connector-curvature="0" />
      </g>
      <g
         id="g1747"
         transform="translate(57.3562,75.7695)">
        <path
           d="M 0,0 -5.298,-3.061 0,-6.119 5.298,-3.061 v 0.003 6.114 0.002 z"
           style="fill:#44c8f5;fill-opacity:1;fill-rule:nonzero;stroke:none"
           id="path1745"
           inkscape:connector-curvature="0" />
      </g>
      <g
         id="g1751"
         transform="translate(62.6543,60.4753)">
        <path
           d="m 0,0 -5.298,3.058 v 6.117 l -5.298,3.058 v 0 h -10e-4 V 6.12 6.117 6.114 0 0 l 5.299,-3.058 v 0 L -5.296,-3.06 0,-6.119 v 6.116 z"
           style="fill:#f9ed32;fill-opacity:1;fill-rule:nonzero;stroke:none"
           id="path1749"
           inkscape:connector-curvature="0" />
      </g>
      <g
         id="g1755"
         transform="translate(62.6543,78.8278)">
        <path
           d="m 0,0 v 0 0.001 0.005 6.111 6.117 0.002 L -5.298,9.178 V 9.175 3.058 H -5.301 L -10.596,0 v -6.119 0 l 5.298,3.061 z"
           style="fill:#fbb040;fill-opacity:1;fill-rule:nonzero;stroke:none"
           id="path1753"
           inkscape:connector-curvature="0" />
      </g>
      <g
         id="g1759"
         transform="translate(57.3562,81.8863)">
        <path
           d="M 0,0 V 6.117 H -0.003 L -5.298,3.061 V 3.058 -3.058 L -0.003,0 Z"
           style="fill:#f7941e;fill-opacity:1;fill-rule:nonzero;stroke:none"
           id="path1757"
           inkscape:connector-curvature="0" />
      </g>
      <g
         id="g1763"
         transform="translate(52.0578,84.9444)">
        <path
           d="M 0,0 V 0.003 L 5.295,3.058 0,6.117 -5.298,3.058 -0.003,0 Z"
           style="fill:#27aae1;fill-opacity:1;fill-rule:nonzero;stroke:none"
           id="path1761"
           inkscape:connector-curvature="0" />
      </g>
      <g
         id="g1767"
         transform="translate(52.055,84.9444)">
        <path
           d="M 0,0 -5.296,3.058 V -3.058 L 0.003,-6.117 V 0 Z"
           style="fill:#d7df23;fill-opacity:1;fill-rule:nonzero;stroke:none"
           id="path1765"
           inkscape:connector-curvature="0" />
      </g>
      <g
         id="g1771"
         transform="translate(46.7595,94.1229)">
        <path
           d="M 0,0 -5.298,-3.062 0,-6.12 l 5.298,3.058 5.296,-3.058 0.003,0.003 5.298,3.058 v 0.001 l -5.298,3.054 V 0 L 5.298,3.058 Z"
           style="fill:#44c8f5;fill-opacity:1;fill-rule:nonzero;stroke:none"
           id="path1769"
           inkscape:connector-curvature="0" />
      </g>
      <g
         id="g1775"
         transform="translate(41.4612,84.9474)">
        <path
           d="M 0,0 V -0.003 -6.12 l 5.298,-3.058 5.299,-3.061 V -6.12 L 5.298,-3.061 V 3.055 L 0,6.114 Z"
           style="fill:#f9ed32;fill-opacity:1;fill-rule:nonzero;stroke:none"
           id="path1773"
           inkscape:connector-curvature="0" />
      </g>
      <g
         id="g1779"
         transform="translate(75.5233,61.7853)">
        <path
           d="M 0,0 3.026,1.748 3.027,1.749 3.029,1.75 8.324,4.807 v 6.115 10e-4 0.002 6.115 0.001 0.002 0 L 3.026,13.985 V 13.983 13.982 7.865 H 3.023 L -2.272,4.807 v -6.12 l 0.004,0.002 z"
           style="fill:#fbb040;fill-opacity:1;fill-rule:nonzero;stroke:none"
           id="path1777"
           inkscape:connector-curvature="0" />
      </g>
      <g
         id="g1783"
         transform="translate(78.5463,75.7669)">
        <path
           d="M 0,0 -5.295,-3.055 V -3.058 -9.175 L 0,-6.117 H 0.003 V 0 H 0.001 Z"
           style="fill:#f7941e;fill-opacity:1;fill-rule:nonzero;stroke:none"
           id="path1781"
           inkscape:connector-curvature="0" />
      </g>
      <g
         id="g1787"
         transform="translate(73.251,72.7086)">
        <path
           d="M 0,0 V 0.003 L 5.295,3.058 0,6.117 -5.298,3.058 -0.003,0 Z"
           style="fill:#27aae1;fill-opacity:1;fill-rule:nonzero;stroke:none"
           id="path1785"
           inkscape:connector-curvature="0" />
      </g>
      <g
         id="g1791"
         transform="translate(73.2482,72.7086)">
        <path
           d="M 0,0 -5.296,3.058 V -3.058 L 0.003,-6.117 V 0 Z"
           style="fill:#d7df23;fill-opacity:1;fill-rule:nonzero;stroke:none"
           id="path1789"
           inkscape:connector-curvature="0" />
      </g>
      <g
         id="g1795"
         transform="translate(78.5495,81.8837)">
        <path
           d="m 0,0 v 0.003 l -0.006,0.004 -5.292,3.054 -5.294,-3.055 -0.005,-0.003 -5.291,-3.057 -0.005,-0.003 -0.002,-10e-4 5.298,-3.059 5.299,3.059 5.295,-3.059 0.003,0.003 5.298,3.059 -0.005,0.002 z"
           style="fill:#44c8f5;fill-opacity:1;fill-rule:nonzero;stroke:none"
           id="path1793"
           inkscape:connector-curvature="0" />
      </g>
      <g
         id="g1799"
         transform="translate(67.9525,69.6503)">
        <path
           d="M 0,0 V 6.117 L -5.298,9.175 V 3.061 3.058 -3.055 -3.058 L 0,-6.117 v 0 l 2.728,-1.576 2.568,-1.483 0.002,-0.002 v 6.12 z"
           style="fill:#f9ed32;fill-opacity:1;fill-rule:nonzero;stroke:none"
           id="path1797"
           inkscape:connector-curvature="0" />
      </g>
      <g
         id="g1803"
         transform="translate(99.7427,88.006)">
        <path
           d="M 0,0 V -0.003 -6.12 h -0.003 l -5.295,-3.058 v -6.119 l 0.002,0.001 5.296,3.06 5.298,3.058 v 6.117 6.116 0.003 z"
           style="fill:#fbb040;fill-opacity:1;fill-rule:nonzero;stroke:none"
           id="path1801"
           inkscape:connector-curvature="0" />
      </g>
      <g
         id="g1807"
         transform="translate(94.4445,84.9477)">
        <path
           d="M 0,0 V -0.003 -6.12 l 5.295,3.059 H 5.298 V 3.055 H 5.295 Z"
           style="fill:#f7941e;fill-opacity:1;fill-rule:nonzero;stroke:none"
           id="path1805"
           inkscape:connector-curvature="0" />
      </g>
      <g
         id="g1811"
         transform="translate(94.4445,84.9447)">
        <path
           d="M 0,0 V 0.003 L 5.295,3.058 0,6.117 -5.298,3.058 -0.003,0 Z"
           style="fill:#27aae1;fill-opacity:1;fill-rule:nonzero;stroke:none"
           id="path1809"
           inkscape:connector-curvature="0" />
      </g>
      <g
         id="g1815"
         transform="translate(94.4413,84.9447)">
        <path
           d="M 0,0 -5.295,3.058 V -3.058 L 0.003,-6.117 V 0 Z"
           style="fill:#d7df23;fill-opacity:1;fill-rule:nonzero;stroke:none"
           id="path1813"
           inkscape:connector-curvature="0" />
      </g>
      <g
         id="g1819"
         transform="translate(94.4445,91.0615)">
        <path
           d="m 0,0 5.295,-3.058 0.003,0.003 5.298,3.058 -5.298,3.055 V 3.061 L 0,6.12 -5.298,3.061 -10.597,0 -5.298,-3.058 Z"
           style="fill:#44c8f5;fill-opacity:1;fill-rule:nonzero;stroke:none"
           id="path1817"
           inkscape:connector-curvature="0" />
      </g>
      <g
         id="g1823"
         transform="translate(83.8475,84.9477)">
        <path
           d="m 0,0 v -0.003 -6.111 -0.006 0 h 0.001 l 0.002,-0.001 5.295,-3.057 0.003,-0.002 1.074,-0.62 4.221,-2.438 10e-4,-0.001 V -6.12 L 5.298,-3.061 V 3.055 L 0,6.114 V 0.003 Z"
           style="fill:#f9ed32;fill-opacity:1;fill-rule:nonzero;stroke:none"
           id="path1821"
           inkscape:connector-curvature="0" />
      </g>
    </g>
  </g>
</svg>
